<svg width="131" height="175" viewBox="0 0 131 175" fill="none" xmlns="http://www.w3.org/2000/svg">
<path d="M75.5901 22.4275C78.8238 16.7745 76.9015 9.54805 71.2965 6.28664C67.9628 4.35304 63.9005 4.19239 60.427 5.85678C58.9506 7.69668 61.0413 8.62867 61.146 8.73382C63.9447 7.75664 67.4864 8.36473 70.053 9.8552C73.6202 12.3877 74.6071 17.0485 73.1381 20.0232C70.3163 24.9561 64.4954 26.5695 59.6043 23.7236C55.3199 21.2288 52.7881 17.0948 54.4626 12.3999C52.4669 17.8055 54.6325 23.8743 59.5859 26.7578C65.191 30.0191 72.3563 28.0804 75.5901 22.4275Z" fill="#AFAFAF"/>
<path d="M99.8157 46.9525C99.3318 47.0527 98.8359 47.0972 98.3422 47.1473C97.42 47.2396 96.5006 47.3483 95.5806 47.4546C94.2911 47.5836 93.0021 47.7153 91.7138 47.8528C90.2083 48.0156 88.6989 48.1473 87.1901 48.2865C85.5161 48.4475 83.8373 48.5678 82.16 48.7011C80.3586 48.8294 78.5562 48.9468 76.753 49.056C74.8278 49.1658 72.9011 49.2529 70.9735 49.3262C68.8372 49.4101 66.6984 49.4284 64.5601 49.4198C62.7294 49.4076 60.8992 49.3676 59.0695 49.3176C57.4556 49.2701 55.8432 49.1958 54.2308 49.1225C52.824 49.0593 51.4212 48.9525 50.0188 48.8419C48.8459 48.7503 47.676 48.6343 46.5054 48.5247C45.5332 48.4269 44.5611 48.327 43.591 48.2161C42.7778 48.131 41.9654 48.0413 41.1547 47.9409C40.4639 47.8583 39.7758 47.7606 39.0883 47.6603C38.4881 47.5722 37.8913 47.4706 37.2918 47.3794C36.7825 47.2901 36.2672 47.23 35.7577 47.1417C35.3568 47.0647 34.9568 46.9888 34.5498 46.938C34.1985 46.891 33.8454 46.8537 33.4926 46.8155C33.1898 46.783 32.8864 46.7534 32.5859 46.7078C32.3518 46.6647 32.1155 46.6344 31.8839 46.582C31.6213 46.5098 31.4529 46.4313 31.371 46.2025C31.3539 46.1976 31.4342 45.9945 31.4513 45.9993C31.6848 45.8114 31.9279 45.7368 32.2512 45.7239C32.5035 45.7214 32.7538 45.7389 33.0057 45.7466C33.3141 45.7637 33.6208 45.7964 33.9277 45.8259C34.2875 45.8623 34.6468 45.9013 35.0068 45.9355C35.4299 45.9814 35.8546 46.0079 36.2794 46.0402C36.803 46.0866 37.3215 46.1632 37.845 46.2107C38.4575 46.2764 39.0719 46.3257 39.6842 46.3935C40.3725 46.4688 41.0603 46.5468 41.7494 46.6169C42.5585 46.6972 43.3679 46.776 44.1784 46.8462C45.1548 46.9229 46.1308 47.0014 47.1082 47.0692C48.2765 47.1591 49.4455 47.2435 50.6158 47.3125C52.0123 47.3899 53.4104 47.4425 54.8089 47.4864C56.4189 47.5379 58.0295 47.5694 59.6405 47.5883C61.4615 47.6138 63.2826 47.6354 65.1038 47.6371C66.8517 47.6346 68.5998 47.6221 70.3464 47.5585C72.2702 47.4898 74.1942 47.4233 76.1173 47.3425C77.9316 47.2733 79.7458 47.203 81.5598 47.1279C83.2551 47.0676 84.9491 46.9819 86.6437 46.91C88.1782 46.8386 89.7116 46.7512 91.2466 46.6876C92.5689 46.6364 93.8914 46.5891 95.2135 46.5361C96.1628 46.5094 97.1113 46.4756 98.0597 46.4326C98.5906 46.4137 99.1247 46.392 99.6518 46.4649C99.693 46.4551 99.8567 46.943 99.8157 46.9527V46.9525Z" fill="#AFAFAF"/>
<path d="M14.573 74.8789C14.6386 74.883 14.6643 75.0606 14.673 75.3904C14.7107 75.0626 14.6908 74.8863 14.573 74.8789ZM14.673 75.3904C14.4141 77.6408 11.3823 87.1943 17.8111 100.716C20.7408 106.094 24.5678 109.92 29.1922 115.189C26.2653 115.057 24.1257 116.043 21.0898 116.43L21.9891 117.678C25.1331 117.217 27.3677 115.783 30.3723 115.794C26.0361 109.276 22.752 105.273 20.1231 99.5383C13.9224 87.8089 14.7346 77.7275 14.673 75.3904ZM14.3678 75.2264C13.9461 75.3552 10.7639 79.6675 7.31118 87.8021C3.7726 96.1391 0.001697 108.607 0 123.486C2.89804 121.903 6.5247 122 9.80145 120.853L9.23646 119.277C6.19233 120.362 3.48575 120.574 0.801722 122.14C1.39827 108.364 5.43079 96.438 8.75703 88.3382C12.1195 80.1501 14.7341 75.4229 14.4004 75.2271C14.3926 75.2225 14.3814 75.2223 14.3678 75.2264V75.2264Z" fill="#AFAFAF"/>
<path d="M9.12812 119.24C9.06496 119.267 10.7697 127.521 20.2741 137.425C24.6211 141.952 29.9494 146.185 36.7556 150.537C43.9749 155.169 52.46 160.903 59.4252 168.085C60.748 169.444 61.9983 170.906 63.2893 172.431C63.5939 172.801 63.9697 173.249 64.4782 173.704C64.56 173.819 64.6865 173.931 64.8584 174.032C65.1838 174.225 65.6694 174.381 66.3124 174.45C67.2851 174.289 67.8762 173.951 68.0922 173.619C68.5814 173.146 68.9434 172.683 69.2403 172.299C70.4902 170.723 71.7082 169.214 73.0013 167.806C79.8 160.374 88.1837 154.359 95.2619 149.525C102.242 144.775 107.457 140.829 111.987 136.17C120.92 126.987 121.991 119.275 121.894 119.24C121.514 119.104 119.184 126.499 110.516 134.648C105.892 138.994 100.802 142.56 93.7185 147.165C86.4492 151.876 77.8413 157.888 70.6706 165.622C69.2818 167.125 68.0066 168.691 66.7426 170.282C66.5501 170.519 66.3832 170.732 66.2273 170.917C66.0759 170.747 65.912 170.551 65.7233 170.334C64.4233 168.799 63.1174 167.284 61.6965 165.831C54.358 158.355 45.6496 152.619 38.2471 148.11C31.4613 143.963 26.2128 140.072 21.81 135.86C13.227 127.654 10.039 120.359 9.28009 119.369C9.23661 119.333 9.19888 119.293 9.16815 119.247C9.15278 119.239 9.16815 119.247 9.12812 119.24Z" fill="#AFAFAF"/>
<path d="M66.4192 16.9149C66.1403 16.9022 65.9924 16.9822 65.9927 17.0064C65.9936 17.0793 66.3735 17.0816 66.8707 17.4277C67.3026 17.7284 67.7074 18.246 68.0914 19.1022C68.1932 19.2609 68.2622 19.4528 68.3265 19.6478C68.6762 20.0588 68.7647 20.3893 68.6836 20.0578C68.6602 20.0044 68.635 19.9508 68.6173 19.8957C68.6029 19.8505 68.6566 19.9823 68.6761 20.0256C68.6799 20.0412 68.6804 20.0444 68.6836 20.0578C68.7109 20.1199 68.7365 20.1823 68.7474 20.2489C68.7906 20.5128 68.7656 20.7582 68.7086 20.9988C69.238 23.1765 69.3324 25.4266 69.3853 29.2573C69.3813 44.2111 69.7517 69.831 70.4403 98.9007C70.4402 98.8988 70.4891 100.93 70.4891 100.928C70.6802 108.908 70.7669 115.941 71.404 123.308C71.6348 125.993 71.9387 128.598 72.489 131.171C72.8945 133.111 73.4561 135.042 74.447 136.825C75.2014 138.211 76.3426 139.44 77.8496 140.158C79.4964 140.868 81.2303 140.86 82.7275 140.53C85.0026 140.054 87.046 139.067 88.8198 138.077C91.7021 136.482 94.3412 134.609 96.5806 132.934C100.122 130.291 102.735 127.536 104.638 124.931C108.612 119.48 109.817 115.771 109.886 115.816C109.689 115.689 107.785 119.079 103.625 124.133C101.653 126.535 99.0421 129.045 95.5456 131.472C93.2778 133.043 90.6403 134.799 87.8536 136.243C86.1166 137.135 84.237 138.006 82.311 138.345C81.0818 138.545 79.7928 138.568 78.8064 138.058C77.871 137.644 77.1128 136.729 76.5095 135.663C75.7074 134.207 75.2633 132.505 74.8829 130.664C74.394 128.24 74.1349 125.74 73.9298 123.098C73.3675 115.804 73.3254 108.911 73.1369 100.865C73.1368 100.863 73.0888 98.8389 73.0887 98.837C72.3999 69.761 71.5569 44.1481 70.8449 29.2138C70.6025 24.7761 70.2409 22.1088 69.1683 19.5582C68.6256 18.1326 67.7345 17.352 67.0589 17.0707C66.8014 16.9635 66.5865 16.9226 66.4192 16.9149H66.4192Z" fill="#AFAFAF"/>
<path d="M89.8889 41.627C88.5272 42.5618 85.962 43.1287 84.4981 42.7295L83.7998 48.0151L90.2125 47.4963C90.4215 45.9429 90.4463 44.0559 89.8889 41.627Z" fill="#AFAFAF"/>
<path d="M65.2638 0C61.3369 2.02119e-05 57.5709 1.57329 54.7942 4.3737C52.0175 7.17411 50.4575 10.9723 50.4575 14.9326C50.4608 17.3472 51.0446 19.7249 52.1588 21.862C53.2731 23.9991 54.8845 25.8318 56.855 27.2031C56.8862 27.0284 56.9246 26.8515 56.9726 26.6695C55.575 25.4475 54.4538 23.9372 53.6849 22.2405C52.9159 20.5438 52.5172 18.7004 52.5156 16.8349C52.5156 13.3791 53.8767 10.0648 56.2996 7.62116C58.7224 5.1775 62.0086 3.80458 65.4351 3.80443C67.1318 3.80442 68.8119 4.14146 70.3794 4.7963C71.947 5.45114 73.3713 6.41095 74.571 7.62094C75.7708 8.83093 76.7225 10.2674 77.3718 11.8483C78.0211 13.4293 78.3553 15.1237 78.3552 16.8349C78.3543 19.8899 77.289 22.8475 75.3456 25.1908C73.4021 27.5342 70.704 29.1144 67.7227 29.6553C71.1742 29.069 74.3082 27.2686 76.5685 24.5734C78.8288 21.8782 80.0694 18.4626 80.07 14.9326C80.07 10.9723 78.51 7.17411 75.7333 4.3737C72.9566 1.57329 69.1906 2.02119e-05 65.2638 0Z" fill="#AFAFAF"/>
<path d="M64.9205 8.64697C64.147 8.64693 63.3811 8.80054 62.6665 9.09904C61.9519 9.39754 61.3026 9.83507 60.7557 10.3867C60.2088 10.9382 59.775 11.5931 59.479 12.3138C59.183 13.0345 59.0307 13.8069 59.0308 14.587C59.0333 15.2668 59.1515 15.9411 59.3803 16.5806C59.4505 16.5026 59.5261 16.4302 59.6155 16.3706C59.7136 16.3051 59.8158 16.2489 59.92 16.1965C59.8732 15.9145 59.8495 15.6291 59.8494 15.3432C59.8495 13.9686 60.391 12.6504 61.3548 11.6785C62.3186 10.7066 63.6257 10.1606 64.9886 10.1607C66.3515 10.1608 67.6584 10.7068 68.6221 11.6787C69.5857 12.6506 70.1272 13.9687 70.1273 15.3432C70.1255 16.1132 69.9536 16.8731 69.6241 17.5678C69.2946 18.2624 68.8158 18.8743 68.2224 19.3589C68.2364 19.3942 68.2508 19.4291 68.2637 19.4655C69.0474 18.9204 69.6884 18.1918 70.1318 17.3421C70.5752 16.4925 70.8078 15.5471 70.8096 14.587C70.8096 13.8069 70.6573 13.0346 70.3614 12.3139C70.0655 11.5933 69.6317 10.9385 69.0848 10.3869C68.538 9.8353 67.8888 9.39775 67.1742 9.09922C66.4597 8.80068 65.6939 8.64701 64.9205 8.64697Z" fill="#AFAFAF"/>
<path d="M64.0649 16.6874C63.8976 16.6951 63.6833 16.736 63.4258 16.8432C62.7502 17.1245 61.8591 17.9051 61.3164 19.3307C60.2438 21.8813 59.8816 24.5486 59.6392 28.9862C58.9272 43.9206 58.0842 69.5335 57.3954 98.6096C57.3954 98.6076 57.3478 100.64 57.3478 100.637C57.1593 108.684 57.1165 115.576 56.5542 122.87C56.3492 125.513 56.0907 128.012 55.6018 130.437C55.2214 132.277 54.7767 133.98 53.9746 135.435C53.3712 136.501 52.6137 137.417 51.6783 137.83C50.6919 138.34 49.4023 138.317 48.1731 138.118C46.247 137.779 44.3681 136.908 42.6311 136.016C39.8444 134.571 37.2063 132.816 34.9384 131.244C31.442 128.818 28.8309 126.308 26.8587 123.906C23.7596 120.14 21.9191 117.309 21.0972 116.157C21.1512 116.315 21.1434 116.483 21.0716 116.637C21.7202 118.09 23.1239 120.97 25.8456 124.704C27.7492 127.309 30.3622 130.064 33.9035 132.706C36.1429 134.381 38.7826 136.254 41.6649 137.849C43.4387 138.839 45.4815 139.826 47.7566 140.303C49.2538 140.632 50.9876 140.64 52.6344 139.93C54.1414 139.213 55.2833 137.984 56.0377 136.597C57.0286 134.814 57.5895 132.884 57.9951 130.944C58.5454 128.37 58.8493 125.766 59.0801 123.08C59.7171 115.713 59.8045 108.68 59.9956 100.701C59.9957 100.699 60.0437 98.6757 60.0438 98.6733C60.7324 69.6036 61.1028 43.9836 61.0988 29.0298C61.1609 24.5267 61.2742 22.2063 62.0925 19.6221C62.5645 18.298 63.0674 17.5803 63.6134 17.2002C64.1105 16.854 64.4904 16.8518 64.4914 16.7789C64.4917 16.7546 64.3438 16.6746 64.0649 16.6874H64.0649ZM20.6213 115.587C20.6118 115.584 20.6043 115.584 20.5981 115.588C20.6035 115.585 20.6293 115.644 20.6488 115.684C20.7108 115.714 20.7662 115.748 20.8164 115.785C20.7313 115.681 20.6572 115.598 20.6213 115.587L20.6213 115.587Z" fill="#AFAFAF"/>
<path d="M116.427 74.8789C116.362 74.8826 116.336 75.0606 116.327 75.3904C116.289 75.0626 116.309 74.8863 116.427 74.8789ZM116.327 75.3904C116.586 77.6408 119.618 87.1943 113.189 100.716C110.259 106.094 106.432 109.92 101.808 115.189C104.735 115.057 106.875 116.043 109.91 116.43L109.011 117.678C105.867 117.217 103.632 115.783 100.628 115.794C104.964 109.276 108.248 105.273 110.877 99.5383C117.078 87.8089 116.266 77.7275 116.327 75.3904ZM116.632 75.2264C117.054 75.3552 120.236 79.6675 123.689 87.8021C127.228 96.1391 130.998 108.607 131 123.486C128.102 121.903 124.475 122 121.199 120.853L121.764 119.277C124.808 120.362 127.514 120.574 130.198 122.14C129.602 108.364 125.569 96.438 122.243 88.3382C118.881 80.1501 116.266 75.423 116.6 75.2271C116.607 75.2222 116.619 75.2222 116.632 75.2264L116.632 75.2264Z" fill="#AFAFAF"/>
<path d="M32.091 38.5369C32.0741 38.6838 32.038 38.8276 32.0101 38.9726C31.9695 39.1792 31.935 39.3871 31.906 39.5956C31.8647 39.8472 31.8419 40.1015 31.8136 40.3548C31.7817 40.6296 31.7515 40.9045 31.7227 41.1796C31.6937 41.4408 31.6718 41.7027 31.6505 41.9646C31.6316 42.211 31.6159 42.4576 31.6029 42.7044C31.5896 42.9332 31.5814 43.1622 31.5774 43.3913C31.5733 43.5886 31.5745 43.786 31.577 43.9833C31.5788 44.1438 31.5826 44.3043 31.589 44.4647C31.5972 44.5931 31.6057 44.7215 31.6163 44.8498C31.6274 44.9663 31.6439 45.0823 31.6616 45.198C31.6816 45.3042 31.7023 45.4101 31.7214 45.5165C31.7358 45.5986 31.7511 45.6804 31.767 45.7622C31.7845 45.836 31.8048 45.9091 31.8265 45.9817C31.8504 46.0598 31.8718 46.1388 31.8953 46.217C31.912 46.28 31.9345 46.3415 31.9564 46.4029C31.991 46.477 32.0048 46.5154 31.9427 46.5763C31.8169 46.6491 31.8903 46.6087 31.7209 46.6942C31.7264 46.7097 31.5089 46.788 31.5034 46.7723C31.3119 46.8095 31.398 46.8019 31.246 46.8057C31.1501 46.7935 31.1345 46.7431 31.1075 46.6557C31.0829 46.5855 31.0611 46.5143 31.036 46.4443C31.0078 46.3575 30.979 46.271 30.9564 46.1825C30.9322 46.0859 30.9058 45.9894 30.8918 45.8904C30.8789 45.8064 30.8679 45.7221 30.8551 45.6381C30.8381 45.526 30.8221 45.4139 30.8098 45.3012C30.7928 45.1719 30.7744 45.0428 30.7639 44.9127C30.7513 44.7732 30.7432 44.6334 30.7413 44.4934C30.7345 44.3251 30.7285 44.1568 30.7266 43.9885C30.7263 43.7833 30.73 43.5783 30.7354 43.3731C30.743 43.1369 30.7493 42.9006 30.764 42.6647C30.7786 42.4128 30.7926 42.1607 30.8116 41.9091C30.8313 41.6409 30.8542 41.373 30.8793 41.1054C30.9076 40.8268 30.9377 40.5484 30.9725 40.2706C31.0043 40.0122 31.0384 39.7541 31.0664 39.4953C31.0981 39.2702 31.1288 39.0449 31.1762 38.8224C31.21 38.6756 31.24 38.5272 31.287 38.3838C31.2976 38.3263 32.1017 38.4796 32.091 38.5368L32.091 38.5369Z" fill="#AFAFAF"/>
<path d="M99.9674 38.5687C99.9982 38.6675 100.024 38.768 100.049 38.8683C100.078 38.9944 100.11 39.1196 100.147 39.2436C100.188 39.3818 100.225 39.5207 100.257 39.661C100.295 39.795 100.329 39.9304 100.364 40.0654C100.399 40.2106 100.422 40.3585 100.445 40.5059C100.468 40.6568 100.484 40.8085 100.5 40.9603C100.512 41.1114 100.525 41.2623 100.54 41.4132C100.552 41.5619 100.559 41.7108 100.566 41.8597C100.576 42.0076 100.576 42.1557 100.579 42.3038C100.58 42.4388 100.585 42.5737 100.585 42.7087C100.585 42.83 100.583 42.9514 100.579 43.0727C100.577 43.1737 100.573 43.2747 100.571 43.3757C100.568 43.4614 100.566 43.5468 100.562 43.6323C100.556 43.7073 100.553 43.7823 100.546 43.8574C100.543 43.924 100.538 43.9907 100.536 44.0573C100.534 44.1287 100.529 44.2001 100.523 44.2712C100.514 44.3551 100.501 44.4384 100.488 44.5216C100.475 44.5949 100.464 44.6686 100.456 44.7426C100.444 44.8251 100.43 44.9073 100.416 44.9894C100.404 45.0501 100.394 45.1111 100.384 45.172C100.377 45.2282 100.361 45.2832 100.351 45.3389C100.336 45.3978 100.32 45.4559 100.305 45.5148C100.293 45.553 100.285 45.5922 100.277 45.6315C100.271 45.6697 100.264 45.7081 100.257 45.7463C100.25 45.7871 100.237 45.826 100.228 45.8663C100.221 45.8985 100.216 45.9306 100.211 45.9632C100.202 45.9988 100.198 46.0356 100.19 46.0716C100.188 46.1091 100.18 46.1458 100.173 46.1827C100.171 46.2172 100.151 46.2404 100.129 46.2652C100.08 46.3121 100.018 46.3124 99.9537 46.3175C99.782 46.3224 99.8786 46.32 99.6639 46.32C99.6638 46.3224 99.6338 46.3207 99.6338 46.3188C99.4201 46.2994 99.5159 46.309 99.3456 46.2896C99.2816 46.2798 99.2183 46.2736 99.1769 46.2184C99.1576 46.1911 99.1416 46.1662 99.1419 46.131C99.1394 46.0903 99.1358 46.0494 99.1394 46.0087C99.137 45.9601 99.1395 45.9116 99.1391 45.8631C99.1415 45.8161 99.1475 45.7695 99.1537 45.7228C99.1561 45.6815 99.1561 45.6405 99.1622 45.5991C99.1694 45.5552 99.1754 45.5111 99.1819 45.4671C99.1904 45.4187 99.1986 45.3702 99.2042 45.3214C99.2126 45.2748 99.2188 45.2279 99.221 45.1807C99.2282 45.1278 99.2294 45.0738 99.2397 45.0211C99.2494 44.9553 99.2593 44.8895 99.2701 44.8239C99.2822 44.7517 99.2919 44.6796 99.3042 44.6075C99.3174 44.5222 99.3306 44.437 99.3482 44.3525C99.3578 44.2974 99.3679 44.2426 99.3675 44.1863C99.3736 44.126 99.3772 44.0657 99.3796 44.0052C99.382 43.9325 99.3881 43.8598 99.3943 43.7871C99.3991 43.7154 99.4064 43.6442 99.4111 43.5726C99.4171 43.4954 99.4232 43.4184 99.4243 43.341C99.4291 43.2439 99.4267 43.1468 99.4315 43.0497C99.4327 42.9384 99.434 42.8269 99.4323 42.7156C99.4299 42.583 99.4329 42.4505 99.4299 42.318C99.4275 42.1772 99.4202 42.0364 99.4178 41.8955C99.4154 41.7524 99.4093 41.6094 99.4046 41.4665C99.4022 41.3235 99.3985 41.1808 99.3864 41.0384C99.378 40.9001 99.3676 40.7619 99.3544 40.624C99.3423 40.4958 99.3264 40.3684 99.308 40.2411C99.2912 40.1078 99.2652 39.9758 99.2452 39.843C99.2183 39.7045 99.1942 39.5656 99.169 39.4268C99.1496 39.2964 99.1259 39.1669 99.1005 39.0376C99.0804 38.9206 99.0587 38.8029 99.0543 38.684C99.0458 38.6187 99.9618 38.502 99.97 38.5673L99.9674 38.5687Z" fill="#AFAFAF"/>
<path d="M39.1703 46.097C39.1197 45.9351 39.0988 45.7657 39.0778 45.5979C39.053 45.3857 39.0359 45.1727 39.0273 44.9592C39.0147 44.726 39.0138 44.4926 39.0245 44.2594C39.024 44.0172 39.0592 43.7781 39.0857 43.5381C39.0999 43.3202 39.1484 43.1062 39.19 42.8922C39.2265 42.6909 39.2672 42.4908 39.319 42.2929C39.3675 42.1117 39.405 41.9279 39.4483 41.7453C39.4945 41.579 39.5262 41.4093 39.562 41.2406C39.5924 41.082 39.631 40.9259 39.6751 40.7707C39.7108 40.6263 39.7503 40.4828 39.7874 40.3386C39.8256 40.2024 39.8594 40.0647 39.8999 39.9291C39.9439 39.7742 39.9864 39.6187 40.0342 39.4649C40.0836 39.3151 40.1282 39.1637 40.178 39.0141C40.2279 38.8666 40.2852 38.7219 40.3432 38.5776C40.4048 38.4245 40.4721 38.2738 40.5415 38.1242C40.6183 37.957 40.6875 37.8014 40.85 37.7078C41.0158 37.6687 40.9262 37.6807 41.1199 37.6794C41.1264 37.6668 41.3013 37.76 41.2948 37.7725C41.3908 37.9198 41.3551 37.8466 41.4088 37.9888C41.4217 38.1485 41.3317 38.2676 41.2653 38.4078C41.1994 38.5472 41.1349 38.6872 41.0748 38.8291C41.0206 38.9593 40.9674 39.0902 40.9223 39.224C40.8735 39.3697 40.8279 39.5165 40.785 39.6642C40.7381 39.8125 40.6881 39.9599 40.6469 40.1101C40.6114 40.2402 40.5689 40.3684 40.5369 40.4996C40.5026 40.6379 40.476 40.7777 40.4474 40.9173C40.4227 41.0694 40.3941 41.2203 40.363 41.3713C40.3357 41.533 40.3074 41.6949 40.2995 41.8591C40.2857 42.0403 40.2664 42.2213 40.2641 42.4032C40.2627 42.5964 40.256 42.7893 40.253 42.9824C40.2528 43.184 40.2627 43.3852 40.2546 43.5865C40.2587 43.8031 40.2798 44.0192 40.2898 44.2355C40.3109 44.4523 40.3287 44.6693 40.3457 44.8865C40.3634 45.0824 40.3753 45.2787 40.393 45.4746C40.404 45.5927 40.4176 45.7106 40.4269 45.8288C40.4457 45.9184 39.189 46.1867 39.1702 46.097L39.1703 46.097Z" fill="#AFAFAF"/>
<path d="M44.3673 46.6358C44.3176 46.4695 44.2982 46.2961 44.2789 46.1241C44.2553 45.8749 44.2381 45.625 44.227 45.3749C44.2152 45.0819 44.218 44.7886 44.2234 44.4955C44.2311 44.192 44.2496 43.8891 44.2705 43.5864C44.2944 43.2929 44.3227 42.9998 44.3581 42.7075C44.3868 42.4259 44.4376 42.1476 44.488 41.8693C44.5339 41.6091 44.5896 41.3507 44.6433 41.092C44.6894 40.8676 44.7437 40.645 44.8028 40.4238C44.8557 40.2263 44.908 40.0286 44.9686 39.8333C45.0207 39.661 45.0809 39.4915 45.1363 39.3202C45.19 39.1652 45.2613 39.0173 45.3155 38.8626C45.3684 38.7089 45.4304 38.5597 45.5028 38.4145C45.5676 38.2782 45.6262 38.1388 45.6968 38.0054C45.7634 37.8778 45.8487 37.7622 45.9352 37.6479C46.0113 37.516 46.0812 37.3944 46.2165 37.3197C46.3711 37.279 46.2797 37.2902 46.4925 37.3174C46.5011 37.301 46.7298 37.4232 46.7212 37.4395C46.8507 37.5934 46.8168 37.5151 46.8544 37.6578C46.8512 37.8015 46.773 37.9053 46.6992 38.0237C46.6509 38.1339 46.6025 38.244 46.5516 38.353C46.4996 38.4727 46.4467 38.5921 46.4088 38.7175C46.3677 38.8582 46.3205 38.9967 46.2745 39.1358C46.2271 39.2817 46.1958 39.4318 46.1575 39.5802C46.1117 39.7452 46.0755 39.9123 46.0349 40.0786C45.9913 40.2666 45.9428 40.4535 45.9058 40.643C45.8634 40.8556 45.827 41.0692 45.7886 41.2825C45.7434 41.5282 45.7037 41.7747 45.6712 42.0226C45.6388 42.2887 45.6161 42.5561 45.5845 42.8224C45.5571 43.1009 45.5306 43.3795 45.514 43.6589C45.4944 43.9446 45.4757 44.2306 45.4699 44.5171C45.4635 44.7899 45.4581 45.0629 45.4651 45.3357C45.4716 45.5693 45.4799 45.8028 45.494 46.036C45.5009 46.1666 45.5109 46.2974 45.5124 46.4282C45.5269 46.5098 44.3819 46.717 44.3673 46.6353L44.3673 46.6358Z" fill="#AFAFAF"/>
<path d="M83.8321 46.7911C83.7799 46.6204 83.777 46.438 83.7712 46.2608C83.7627 45.9597 83.755 45.6585 83.7425 45.3574C83.7264 44.9942 83.7126 44.6309 83.7015 44.2676C83.6918 43.9064 83.6828 43.5452 83.6782 43.1839C83.6733 42.8603 83.6697 42.5366 83.6661 42.213C83.6649 41.9272 83.6576 41.6413 83.6491 41.3556C83.6431 41.0997 83.631 40.8439 83.6236 40.588C83.6151 40.3537 83.608 40.1193 83.5977 39.885C83.588 39.6768 83.5789 39.4686 83.5688 39.2605C83.5591 39.0838 83.547 38.9073 83.5392 38.7306C83.5308 38.5762 83.5296 38.4215 83.5183 38.2671C83.5159 38.1347 83.5086 38.0025 83.5017 37.8701C83.4957 37.7388 83.4896 37.6078 83.4957 37.4764C83.5089 37.3546 83.4981 37.2322 83.5053 37.1105C83.5078 37.0014 83.5042 36.8933 83.5303 36.7868C83.5789 36.6533 83.6525 36.547 83.7659 36.4632C83.7635 36.4459 84.0054 36.4167 84.0074 36.434C84.1361 36.4834 84.2411 36.5607 84.3309 36.6667C84.3972 36.7662 84.4249 36.8806 84.4615 36.9934C84.5034 37.1144 84.5256 37.2416 84.5688 37.3625C84.6091 37.4905 84.6405 37.6207 84.6666 37.7524C84.6934 37.8941 84.7133 38.0372 84.7328 38.18C84.7489 38.3371 84.7732 38.4931 84.7878 38.6503C84.8074 38.8325 84.8256 39.0149 84.8359 39.198C84.8505 39.4093 84.8681 39.6204 84.8797 39.832C84.8929 40.0672 84.9056 40.3024 84.9171 40.5377C84.9333 40.7965 84.9478 41.0554 84.9589 41.3145C84.9721 41.6073 84.9822 41.9002 84.9877 42.1933C84.995 42.5148 85.0043 42.8362 85.0138 43.1577C85.0259 43.5157 85.0352 43.8737 85.0467 44.2317C85.0588 44.5966 85.0709 44.9615 85.078 45.3265C85.0829 45.6379 85.0877 45.9496 85.0756 46.2609C85.0695 46.438 85.0671 46.6204 85.0147 46.7911C85.0147 46.8755 83.8325 46.8755 83.8325 46.7911L83.8321 46.7911Z" fill="#AFAFAF"/>
<path d="M89.8963 47.5035C89.8643 47.3251 89.8565 47.1424 89.8484 46.9611C89.8387 46.7075 89.8352 46.4536 89.8387 46.1997C89.8399 45.9232 89.8591 45.6476 89.8742 45.3718C89.8874 45.1035 89.9057 44.8356 89.9225 44.5675C89.9346 44.3288 89.9604 44.0919 89.9727 43.8533C89.9739 43.6275 89.9655 43.4016 89.9565 43.1761C89.9517 42.9703 89.965 42.7658 89.9625 42.5599C89.9601 42.3772 89.9415 42.1958 89.9224 42.0145C89.9019 41.8503 89.8811 41.6862 89.8609 41.5219C89.8413 41.3629 89.8196 41.2046 89.8122 41.0442C89.8254 40.8834 89.8171 40.7268 89.7935 40.5681C89.77 40.4154 89.7416 40.2638 89.7155 40.1117C89.6905 39.9683 89.6671 39.8244 89.6416 39.681C89.6128 39.5493 89.5754 39.4206 89.545 39.2892C89.5127 39.1535 89.4855 39.0164 89.4581 38.8792C89.4307 38.7443 89.4135 38.6069 89.3844 38.4724C89.3378 38.3435 89.3073 38.2108 89.2801 38.0756C89.2561 37.9529 89.2367 37.8285 89.2261 37.7034C89.2237 37.5716 89.2882 37.528 89.3837 37.4666C89.3813 37.4466 89.634 37.4027 89.6369 37.4225C89.7484 37.4487 89.8259 37.469 89.8634 37.5982C89.8918 37.7229 89.9081 37.8507 89.9195 37.9787C89.9327 38.1152 89.9397 38.2505 89.9316 38.3877C89.9413 38.5181 89.97 38.6455 89.9914 38.774C90.0158 38.9088 90.0431 39.0429 90.0656 39.1781C90.0909 39.3168 90.1088 39.4556 90.1249 39.5959C90.1484 39.7392 90.1726 39.8821 90.1999 40.0244C90.2276 40.1802 90.2511 40.3367 90.2766 40.4929C90.3011 40.6555 90.3324 40.814 90.3851 40.9686C90.418 41.1253 90.4376 41.2844 90.456 41.4441C90.4774 41.6099 90.5002 41.7756 90.5213 41.9415C90.5452 42.125 90.5642 42.3093 90.597 42.4912C90.6361 42.6931 90.6904 42.8898 90.7271 43.0921C90.7667 43.3189 90.8121 43.5444 90.8562 43.7702C90.9136 44.0247 90.9728 44.2805 90.9957 44.5423C91.0234 44.8131 91.0454 45.0844 91.0658 45.3559C91.088 45.6281 91.1145 45.8998 91.1268 46.1728C91.14 46.4197 91.1458 46.6668 91.1532 46.9138C91.1556 47.0758 91.1629 47.2383 91.1539 47.4001C91.16 47.4987 89.9049 47.6022 89.8983 47.5036L89.8963 47.5035Z" fill="#AFAFAF"/>
<path d="M70.1851 35.0562C70.3539 35.4912 70.4515 35.8788 70.4533 36.3112C70.5841 36.0682 70.7212 35.8014 70.8661 35.4888C70.9011 35.4133 70.8629 35.3218 70.8617 35.2384C70.8607 35.176 70.8563 35.1274 70.8542 35.0694C70.6312 35.064 70.4081 35.0605 70.1851 35.0562V35.0562ZM71.0843 35.0757C71.0473 35.6866 70.9233 36.2579 70.5309 36.8215C71.0124 36.828 71.494 36.8336 71.9755 36.841C73.5816 36.8619 75.1871 36.8955 76.7921 36.9489C78.1862 36.9944 79.58 37.0489 80.972 37.128C82.1386 37.1984 83.304 37.2839 84.4684 37.3752C85.4426 37.4442 86.4151 37.5239 87.3883 37.6016C88.196 37.6728 89.0027 37.753 89.8091 37.8344C90.4958 37.9053 91.1813 37.9841 91.8672 38.0601C92.4774 38.1288 93.0897 38.1785 93.7001 38.2449C94.2218 38.2931 94.7385 38.3708 95.2604 38.4178C95.6838 38.4505 96.107 38.4772 96.5286 38.5237C96.8875 38.5584 97.2451 38.5981 97.6037 38.6347C97.9095 38.6647 98.2156 38.6979 98.5229 38.7154C98.7741 38.7236 99.0236 38.7412 99.2753 38.7388C99.5977 38.7262 99.8402 38.652 100.074 38.4644C100.091 38.4692 100.172 38.2657 100.155 38.2613C100.075 38.0325 99.9069 37.9537 99.6455 37.881C99.4147 37.8285 99.179 37.7975 98.9457 37.7543C98.6463 37.7085 98.3444 37.6785 98.0427 37.6458C97.6911 37.6071 97.339 37.5696 96.9889 37.5222C96.5833 37.4709 96.1852 37.3941 95.7857 37.3166C95.2781 37.2277 94.7641 37.1668 94.2567 37.0769C93.6594 36.985 93.0649 36.8825 92.4669 36.7937C91.7819 36.6926 91.0966 36.5947 90.4082 36.5112C89.6003 36.4097 88.7909 36.319 87.9805 36.233C87.0137 36.1208 86.0445 36.0198 85.0757 35.9208C83.909 35.8098 82.7433 35.6923 81.5742 35.5992C80.1766 35.4868 78.7785 35.3785 77.3762 35.3135C75.7689 35.2382 74.1616 35.1617 72.5527 35.1123C72.0633 35.0982 71.5738 35.0879 71.0843 35.0757ZM60.5594 35.094C60.3107 35.1037 60.0621 35.1145 59.8133 35.1242C59.7598 35.3734 59.751 35.7281 59.7996 36.2198C59.808 36.3045 59.8162 36.3892 59.8246 36.4739C59.852 36.585 59.8899 36.69 59.8296 36.5263C59.828 36.5088 59.8263 36.4914 59.8246 36.4739C59.8201 36.4558 59.8155 36.4443 59.8121 36.4266C59.7463 36.0859 59.5838 35.7466 59.6282 35.4024C59.6414 35.3001 59.6554 35.2198 59.6688 35.1305C58.0854 35.1931 56.5024 35.2632 54.9204 35.3519C53.1221 35.4589 51.3245 35.5739 49.5279 35.7C47.8549 35.8313 46.1804 35.9498 44.5106 36.1088C43.0056 36.2461 41.5003 36.376 39.9985 36.537C38.7135 36.6729 37.4275 36.8025 36.1413 36.9299C35.2236 37.0351 34.3064 37.1428 33.3865 37.2339C32.8941 37.2834 32.3992 37.3273 31.9163 37.4269C31.8753 37.4366 32.036 37.9254 32.077 37.9151C32.6023 37.9884 33.1354 37.9674 33.6648 37.9491C34.6106 37.9075 35.5562 37.8744 36.5027 37.8488C37.8212 37.7974 39.1402 37.7521 40.4588 37.7025C41.9896 37.6408 43.5187 37.555 45.049 37.4856C46.739 37.4158 48.4283 37.3324 50.1189 37.2743C51.9278 37.2013 53.7372 37.1332 55.5464 37.0661C57.1946 36.9988 58.8432 36.9437 60.4918 36.887C60.4239 36.3433 60.3674 35.5576 60.5594 35.0939L60.5594 35.094ZM62.9077 36.6348C62.8521 36.696 62.7821 36.7658 62.7326 36.8233C62.8597 36.8208 62.9869 36.8189 63.114 36.8164C63.0453 36.7561 62.9772 36.6974 62.9077 36.6348Z" fill="#AFAFAF"/>
<path d="M40.4712 40.9976C41.7318 42.0669 44.1065 42.7153 45.4617 42.2587L45.4079 47.8337L39.4713 47.2403C39.2778 45.4634 39.9552 43.7759 40.4712 40.9976H40.4712Z" fill="#AFAFAF"/>
<path d="M66.3339 167.64L65.4951 22.0046L67.1727 23.1603C67.1727 23.1603 68.2612 98.4327 70.3103 135.818C70.3103 135.818 72.6474 144.754 73.9451 145.683C118.855 132.929 122.994 114.655 118.929 84.4639C122.011 91.0293 125.148 98.0594 128.31 120.119C122.627 114.908 120.414 118.987 118.773 121.894C109.609 138.9 71.2665 156.618 66.3339 167.64Z" fill="#AFAFAF"/>
<path d="M62.917 164.172L59.127 160.508L62.3889 67.9189L62.917 164.172Z" fill="#AFAFAF"/>
<path d="M12.4657 86.916C10.1311 101.252 10.8753 112.516 13.1181 117.328C18.9703 129.884 38.7566 148.348 51.7955 142.514C35.7588 142.392 16.7393 121.507 18.9896 116.708C20.4409 116.299 23.5252 113.523 28.1851 115.045C23.5252 113.523 13.3307 98.8999 12.4657 86.916Z" fill="#AFAFAF"/>
<path d="M8.39502 116.875C6.73855 109.351 7.59301 99.7128 7.47416 95.0747C5.69666 102.558 2.44864 114.216 2.81233 119.826C5.11455 119.139 7.53128 119.343 8.39502 116.875Z" fill="#AFAFAF"/>
<path d="M105.129 113.436C110.611 110.936 115.243 98.1102 117.401 93.4497C116.296 100.903 117.318 110.729 110.365 115.517C108.649 113.824 104.749 116.024 105.129 113.436Z" fill="#AFAFAF"/>
</svg>
