<svg width="118" height="24" viewBox="0 0 118 24" fill="none" xmlns="http://www.w3.org/2000/svg">
<path d="M0.205598 19.559L2.7786 16.335C4.03927 17.4303 5.24827 18.2363 6.4056 18.753C7.5836 19.249 8.8236 19.497 10.1256 19.497C11.4689 19.497 12.5436 19.249 13.3496 18.753C14.1556 18.257 14.5586 17.5957 14.5586 16.769C14.5586 16.025 14.2796 15.4463 13.7216 15.033C13.1843 14.6197 12.2749 14.3097 10.9936 14.103L6.6846 13.359C4.8246 13.049 3.40893 12.398 2.4376 11.406C1.48693 10.414 1.0116 9.13267 1.0116 7.562C1.0116 5.53667 1.77627 3.935 3.3056 2.757C4.8556 1.579 6.94293 0.989999 9.5676 0.989999C11.1383 0.989999 12.7193 1.25867 14.3106 1.796C15.9226 2.33333 17.3279 3.07733 18.5266 4.028L16.1086 7.376C14.9513 6.48733 13.8146 5.83633 12.6986 5.423C11.5826 4.989 10.4356 4.772 9.2576 4.772C8.05893 4.772 7.09793 4.99933 6.3746 5.454C5.65127 5.888 5.2896 6.477 5.2896 7.221C5.2896 7.88233 5.52727 8.399 6.0026 8.771C6.47793 9.143 7.2736 9.41167 8.3896 9.577L12.4816 10.259C14.6309 10.6103 16.2429 11.3027 17.3176 12.336C18.4129 13.3487 18.9606 14.692 18.9606 16.366C18.9606 18.474 18.1236 20.1583 16.4496 21.419C14.7963 22.6797 12.5849 23.31 9.8156 23.31C8.0796 23.31 6.36427 22.9793 4.6696 22.318C2.9956 21.6567 1.5076 20.737 0.205598 19.559ZM26.3025 23V1.3H30.7975V23H26.3025ZM37.5388 19.559L40.1118 16.335C41.3725 17.4303 42.5815 18.2363 43.7388 18.753C44.9168 19.249 46.1568 19.497 47.4588 19.497C48.8021 19.497 49.8768 19.249 50.6828 18.753C51.4888 18.257 51.8918 17.5957 51.8918 16.769C51.8918 16.025 51.6128 15.4463 51.0548 15.033C50.5175 14.6197 49.6081 14.3097 48.3268 14.103L44.0178 13.359C42.1578 13.049 40.7421 12.398 39.7708 11.406C38.8201 10.414 38.3448 9.13267 38.3448 7.562C38.3448 5.53667 39.1095 3.935 40.6388 2.757C42.1888 1.579 44.2761 0.989999 46.9008 0.989999C48.4715 0.989999 50.0525 1.25867 51.6438 1.796C53.2558 2.33333 54.6611 3.07733 55.8598 4.028L53.4418 7.376C52.2845 6.48733 51.1478 5.83633 50.0318 5.423C48.9158 4.989 47.7688 4.772 46.5908 4.772C45.3921 4.772 44.4311 4.99933 43.7078 5.454C42.9845 5.888 42.6228 6.477 42.6228 7.221C42.6228 7.88233 42.8605 8.399 43.3358 8.771C43.8111 9.143 44.6068 9.41167 45.7228 9.577L49.8148 10.259C51.9641 10.6103 53.5761 11.3027 54.6508 12.336C55.7461 13.3487 56.2938 14.692 56.2938 16.366C56.2938 18.474 55.4568 20.1583 53.7828 21.419C52.1295 22.6797 49.9181 23.31 47.1488 23.31C45.4128 23.31 43.6975 22.9793 42.0028 22.318C40.3288 21.6567 38.8408 20.737 37.5388 19.559Z" fill="#F8F8FB"/>
<path d="M75.2917 21.45L67.7897 7.035V23H63.6357V1.3H69.4017L75.3537 12.956L81.3057 1.3H87.0717V23H82.8247V7.066L75.2917 21.45ZM117.757 12.15C117.757 13.7 117.457 15.1673 116.858 16.552C116.258 17.916 115.442 19.1043 114.409 20.117C113.396 21.109 112.187 21.8943 110.782 22.473C109.376 23.0517 107.868 23.341 106.256 23.341C104.664 23.341 103.166 23.0517 101.761 22.473C100.355 21.8943 99.136 21.109 98.1026 20.117C97.09 19.1043 96.284 17.916 95.6846 16.552C95.0853 15.1673 94.7856 13.7 94.7856 12.15C94.7856 10.6 95.0853 9.143 95.6846 7.779C96.284 6.39433 97.09 5.206 98.1026 4.214C99.136 3.20133 100.355 2.40567 101.761 1.827C103.166 1.24833 104.664 0.958999 106.256 0.958999C107.868 0.958999 109.376 1.24833 110.782 1.827C112.187 2.40567 113.396 3.20133 114.409 4.214C115.442 5.206 116.258 6.39433 116.858 7.779C117.457 9.143 117.757 10.6 117.757 12.15ZM113.138 12.15C113.138 11.1373 112.962 10.2073 112.611 9.36C112.259 8.492 111.774 7.748 111.154 7.128C110.554 6.48733 109.831 5.99133 108.984 5.64C108.136 5.268 107.227 5.082 106.256 5.082C105.284 5.082 104.375 5.268 103.528 5.64C102.701 5.99133 101.978 6.48733 101.358 7.128C100.758 7.748 100.283 8.492 99.9316 9.36C99.5803 10.2073 99.4046 11.1373 99.4046 12.15C99.4046 13.142 99.5803 14.072 99.9316 14.94C100.283 15.808 100.758 16.5623 101.358 17.203C101.978 17.823 102.701 18.319 103.528 18.691C104.375 19.0423 105.284 19.218 106.256 19.218C107.227 19.218 108.136 19.0423 108.984 18.691C109.831 18.319 110.554 17.823 111.154 17.203C111.774 16.5623 112.259 15.808 112.611 14.94C112.962 14.072 113.138 13.142 113.138 12.15Z" fill="#0466C8"/>
</svg>
