<svg width="240" height="53" viewBox="0 0 240 53" fill="none" xmlns="http://www.w3.org/2000/svg">
<path d="M0.279325 28.559L2.85233 25.335C4.11299 26.4303 5.32199 27.2363 6.47933 27.753C7.65733 28.249 8.89733 28.497 10.1993 28.497C11.5427 28.497 12.6173 28.249 13.4233 27.753C14.2293 27.257 14.6323 26.5957 14.6323 25.769C14.6323 25.025 14.3533 24.4463 13.7953 24.033C13.258 23.6197 12.3487 23.3097 11.0673 23.103L6.75833 22.359C4.89833 22.049 3.48266 21.398 2.51133 20.406C1.56066 19.414 1.08533 18.1327 1.08533 16.562C1.08533 14.5367 1.84999 12.935 3.37933 11.757C4.92933 10.579 7.01666 9.99 9.64133 9.99C11.212 9.99 12.793 10.2587 14.3843 10.796C15.9963 11.3333 17.4017 12.0773 18.6003 13.028L16.1823 16.376C15.025 15.4873 13.8883 14.8363 12.7723 14.423C11.6563 13.989 10.5093 13.772 9.33133 13.772C8.13266 13.772 7.17166 13.9993 6.44833 14.454C5.72499 14.888 5.36333 15.477 5.36333 16.221C5.36333 16.8823 5.60099 17.399 6.07633 17.771C6.55166 18.143 7.34733 18.4117 8.46333 18.577L12.5553 19.259C14.7047 19.6103 16.3167 20.3027 17.3913 21.336C18.4867 22.3487 19.0343 23.692 19.0343 25.366C19.0343 27.474 18.1973 29.1583 16.5233 30.419C14.87 31.6797 12.6587 32.31 9.88933 32.31C8.15333 32.31 6.43799 31.9793 4.74333 31.318C3.06933 30.6567 1.58133 29.737 0.279325 28.559ZM26.3762 32V10.3H30.8712V32H26.3762ZM37.6125 28.559L40.1855 25.335C41.4462 26.4303 42.6552 27.2363 43.8125 27.753C44.9905 28.249 46.2305 28.497 47.5325 28.497C48.8759 28.497 49.9505 28.249 50.7565 27.753C51.5625 27.257 51.9655 26.5957 51.9655 25.769C51.9655 25.025 51.6865 24.4463 51.1285 24.033C50.5912 23.6197 49.6819 23.3097 48.4005 23.103L44.0915 22.359C42.2315 22.049 40.8159 21.398 39.8445 20.406C38.8939 19.414 38.4185 18.1327 38.4185 16.562C38.4185 14.5367 39.1832 12.935 40.7125 11.757C42.2625 10.579 44.3499 9.99 46.9745 9.99C48.5452 9.99 50.1262 10.2587 51.7175 10.796C53.3295 11.3333 54.7349 12.0773 55.9335 13.028L53.5155 16.376C52.3582 15.4873 51.2215 14.8363 50.1055 14.423C48.9895 13.989 47.8425 13.772 46.6645 13.772C45.4659 13.772 44.5049 13.9993 43.7815 14.454C43.0582 14.888 42.6965 15.477 42.6965 16.221C42.6965 16.8823 42.9342 17.399 43.4095 17.771C43.8849 18.143 44.6805 18.4117 45.7965 18.577L49.8885 19.259C52.0379 19.6103 53.6499 20.3027 54.7245 21.336C55.8199 22.3487 56.3675 23.692 56.3675 25.366C56.3675 27.474 55.5305 29.1583 53.8565 30.419C52.2032 31.6797 49.9919 32.31 47.2225 32.31C45.4865 32.31 43.7712 31.9793 42.0765 31.318C40.4025 30.6567 38.9145 29.737 37.6125 28.559ZM75.3654 30.45L67.8634 16.035V32H63.7094V10.3H69.4754L75.4274 21.956L81.3794 10.3H87.1454V32H82.8984V16.066L75.3654 30.45ZM117.83 21.15C117.83 22.7 117.531 24.1673 116.931 25.552C116.332 26.916 115.516 28.1043 114.482 29.117C113.47 30.109 112.261 30.8943 110.855 31.473C109.45 32.0517 107.941 32.341 106.329 32.341C104.738 32.341 103.24 32.0517 101.834 31.473C100.429 30.8943 99.2097 30.109 98.1764 29.117C97.1637 28.1043 96.3577 26.916 95.7584 25.552C95.159 24.1673 94.8594 22.7 94.8594 21.15C94.8594 19.6 95.159 18.143 95.7584 16.779C96.3577 15.3943 97.1637 14.206 98.1764 13.214C99.2097 12.2013 100.429 11.4057 101.834 10.827C103.24 10.2483 104.738 9.959 106.329 9.959C107.941 9.959 109.45 10.2483 110.855 10.827C112.261 11.4057 113.47 12.2013 114.482 13.214C115.516 14.206 116.332 15.3943 116.931 16.779C117.531 18.143 117.83 19.6 117.83 21.15ZM113.211 21.15C113.211 20.1373 113.036 19.2073 112.684 18.36C112.333 17.492 111.847 16.748 111.227 16.128C110.628 15.4873 109.905 14.9913 109.057 14.64C108.21 14.268 107.301 14.082 106.329 14.082C105.358 14.082 104.449 14.268 103.601 14.64C102.775 14.9913 102.051 15.4873 101.431 16.128C100.832 16.748 100.357 17.492 100.005 18.36C99.654 19.2073 99.4784 20.1373 99.4784 21.15C99.4784 22.142 99.654 23.072 100.005 23.94C100.357 24.808 100.832 25.5623 101.431 26.203C102.051 26.823 102.775 27.319 103.601 27.691C104.449 28.0423 105.358 28.218 106.329 28.218C107.301 28.218 108.21 28.0423 109.057 27.691C109.905 27.319 110.628 26.823 111.227 26.203C111.847 25.5623 112.333 24.808 112.684 23.94C113.036 23.072 113.211 22.142 113.211 21.15ZM134.373 32L143.301 10.3H148.509L157.313 32H152.446L150.245 26.296H141.286L139.054 32H134.373ZM142.681 22.7H148.881L145.812 14.702L142.681 22.7ZM146.494 3.573H151.33L147.145 7.603H143.704L146.494 3.573ZM184.14 21.181C184.14 22.7723 183.861 24.2603 183.303 25.645C182.765 27.009 182.011 28.187 181.04 29.179C180.089 30.1503 178.942 30.9253 177.599 31.504C176.255 32.062 174.809 32.341 173.259 32.341C171.647 32.341 170.138 32.0517 168.733 31.473C167.327 30.8943 166.108 30.109 165.075 29.117C164.062 28.1043 163.256 26.916 162.657 25.552C162.057 24.188 161.758 22.7207 161.758 21.15C161.758 19.5793 162.047 18.112 162.626 16.748C163.225 15.384 164.031 14.206 165.044 13.214C166.077 12.2013 167.296 11.4057 168.702 10.827C170.107 10.2483 171.605 9.959 173.197 9.959C174.995 9.959 176.689 10.3207 178.281 11.044C179.872 11.7673 181.184 12.7593 182.218 14.02L179.087 16.903C178.322 15.9937 177.433 15.3013 176.421 14.826C175.429 14.33 174.354 14.082 173.197 14.082C172.225 14.082 171.316 14.268 170.469 14.64C169.642 14.9913 168.919 15.4873 168.299 16.128C167.699 16.748 167.224 17.492 166.873 18.36C166.542 19.2073 166.377 20.1373 166.377 21.15C166.377 22.1627 166.552 23.103 166.904 23.971C167.255 24.839 167.741 25.5933 168.361 26.234C168.981 26.854 169.714 27.35 170.562 27.722C171.43 28.0733 172.349 28.249 173.321 28.249C174.85 28.249 176.162 27.8253 177.258 26.978C178.374 26.1307 179.066 25.0457 179.335 23.723H172.918V19.817H184.14V21.181ZM210.736 22.607C210.736 24.0743 210.509 25.4177 210.054 26.637C209.599 27.8357 208.948 28.8587 208.101 29.706C207.274 30.5327 206.262 31.1733 205.063 31.628C203.885 32.0827 202.573 32.31 201.126 32.31C199.659 32.31 198.326 32.0827 197.127 31.628C195.949 31.1733 194.947 30.5327 194.12 29.706C193.293 28.8587 192.653 27.8357 192.198 26.637C191.743 25.4383 191.516 24.095 191.516 22.607V10.3H196.011V22.607C196.011 24.281 196.476 25.6243 197.406 26.637C198.357 27.6497 199.607 28.156 201.157 28.156C202.707 28.156 203.937 27.6497 204.846 26.637C205.776 25.6243 206.241 24.281 206.241 22.607V10.3H210.736V22.607ZM215.985 32L224.913 10.3H230.121L238.925 32H234.058L231.857 26.296H222.898L220.666 32H215.985ZM224.293 22.7H230.493L227.424 14.702L224.293 22.7Z" fill="#F8F9FB"/>
<path d="M0.496 47.68L1.057 47.097C1.453 47.515 1.87467 47.834 2.322 48.054C2.77667 48.2667 3.25333 48.373 3.752 48.373C4.35333 48.373 4.84833 48.23 5.237 47.944C5.62567 47.658 5.82 47.295 5.82 46.855C5.82 46.459 5.68067 46.1547 5.402 45.942C5.13067 45.7293 4.67967 45.5717 4.049 45.469L2.938 45.293C2.19733 45.1757 1.651 44.9593 1.299 44.644C0.947 44.3213 0.771 43.8887 0.771 43.346C0.771 42.708 1.02033 42.191 1.519 41.795C2.01767 41.399 2.67033 41.201 3.477 41.201C4.01233 41.201 4.544 41.289 5.072 41.465C5.6 41.641 6.08033 41.894 6.513 42.224L6.029 42.884C5.611 42.5687 5.18567 42.3303 4.753 42.169C4.32033 42.0077 3.884 41.927 3.444 41.927C2.894 41.927 2.44667 42.0553 2.102 42.312C1.76467 42.5613 1.596 42.884 1.596 43.28C1.596 43.6393 1.717 43.9143 1.959 44.105C2.201 44.2957 2.60067 44.435 3.158 44.523L4.258 44.699C5.094 44.8383 5.70267 45.0767 6.084 45.414C6.47267 45.7513 6.667 46.217 6.667 46.811C6.667 47.1483 6.59367 47.46 6.447 47.746C6.30767 48.0247 6.106 48.2667 5.842 48.472C5.58533 48.67 5.27367 48.8277 4.907 48.945C4.54767 49.055 4.15167 49.11 3.719 49.11C3.11033 49.11 2.52367 48.989 1.959 48.747C1.40167 48.4977 0.914 48.142 0.496 47.68ZM8.0707 42.433C7.92404 42.433 7.7957 42.378 7.6857 42.268C7.5757 42.158 7.5207 42.0297 7.5207 41.883C7.5207 41.729 7.5757 41.6007 7.6857 41.498C7.7957 41.388 7.92404 41.333 8.0707 41.333C8.2247 41.333 8.35304 41.388 8.4557 41.498C8.5657 41.6007 8.6207 41.729 8.6207 41.883C8.6207 42.0297 8.5657 42.158 8.4557 42.268C8.35304 42.378 8.2247 42.433 8.0707 42.433ZM8.4777 43.489V49H7.6637V43.489H8.4777ZM9.30485 48.241L9.79985 47.713C10.0492 47.9477 10.3279 48.131 10.6359 48.263C10.9512 48.3877 11.2702 48.45 11.5929 48.45C12.0329 48.45 12.3922 48.3583 12.6709 48.175C12.9495 47.9917 13.0889 47.7533 13.0889 47.46C13.0889 47.2253 13.0045 47.042 12.8359 46.91C12.6745 46.7707 12.4179 46.6753 12.0659 46.624L11.1089 46.492C10.5589 46.4113 10.1482 46.25 9.87685 46.008C9.61285 45.7587 9.48085 45.425 9.48085 45.007C9.48085 44.545 9.67518 44.1637 10.0639 43.863C10.4525 43.555 10.9475 43.401 11.5489 43.401C11.9449 43.401 12.3189 43.4597 12.6709 43.577C13.0302 43.6943 13.3785 43.8777 13.7159 44.127L13.2869 44.677C12.9789 44.4717 12.6782 44.3177 12.3849 44.215C12.0989 44.1123 11.8055 44.061 11.5049 44.061C11.1309 44.061 10.8229 44.1453 10.5809 44.314C10.3462 44.4827 10.2289 44.7027 10.2289 44.974C10.2289 45.2087 10.3095 45.392 10.4709 45.524C10.6322 45.6487 10.8925 45.7367 11.2519 45.788L12.2089 45.92C12.7589 45.9933 13.1695 46.1583 13.4409 46.415C13.7195 46.6643 13.8589 46.998 13.8589 47.416C13.8589 47.6507 13.8002 47.8743 13.6829 48.087C13.5729 48.2923 13.4152 48.472 13.2099 48.626C13.0119 48.7727 12.7772 48.89 12.5059 48.978C12.2345 49.0587 11.9412 49.099 11.6259 49.099C11.1712 49.099 10.7422 49.0257 10.3389 48.879C9.94285 48.725 9.59818 48.5123 9.30485 48.241ZM15.3496 47.768V44.182H14.1616V43.489H15.3496V42.092L16.1526 41.883V43.489H17.8136V44.182H16.1526V47.559C16.1526 47.8523 16.2186 48.065 16.3506 48.197C16.4826 48.3217 16.6989 48.384 16.9996 48.384C17.1536 48.384 17.2893 48.373 17.4066 48.351C17.5313 48.329 17.6633 48.2923 17.8026 48.241V48.956C17.6633 49.0073 17.5056 49.044 17.3296 49.066C17.1609 49.088 16.9959 49.099 16.8346 49.099C16.3579 49.099 15.9913 48.9853 15.7346 48.758C15.4779 48.5307 15.3496 48.2007 15.3496 47.768ZM23.1553 48.417C22.8473 48.6443 22.5246 48.8167 22.1873 48.934C21.8573 49.044 21.4943 49.099 21.0983 49.099C20.7023 49.099 20.3283 49.0257 19.9763 48.879C19.6316 48.7323 19.331 48.5307 19.0743 48.274C18.825 48.0173 18.627 47.7167 18.4803 47.372C18.3336 47.02 18.2603 46.6423 18.2603 46.239C18.2603 45.843 18.33 45.4727 18.4693 45.128C18.616 44.7833 18.8103 44.4827 19.0523 44.226C19.2943 43.9693 19.5803 43.7677 19.9103 43.621C20.2476 43.4743 20.6033 43.401 20.9773 43.401C21.344 43.401 21.685 43.4743 22.0003 43.621C22.323 43.7677 22.598 43.9693 22.8253 44.226C23.06 44.4827 23.2433 44.7833 23.3753 45.128C23.5146 45.4727 23.5843 45.843 23.5843 46.239V46.492H19.0633C19.122 47.0347 19.3456 47.4857 19.7343 47.845C20.123 48.2043 20.5886 48.384 21.1313 48.384C21.4173 48.384 21.696 48.34 21.9673 48.252C22.2386 48.164 22.466 48.0393 22.6493 47.878L23.1553 48.417ZM20.9553 44.116C20.4786 44.116 20.0643 44.2773 19.7123 44.6C19.3676 44.9227 19.1586 45.337 19.0853 45.843H22.7703C22.697 45.359 22.488 44.952 22.1433 44.622C21.806 44.2847 21.41 44.116 20.9553 44.116ZM24.7223 49V43.489H25.5363V44.094C25.7416 43.8593 25.98 43.6833 26.2513 43.566C26.5226 43.4413 26.8233 43.379 27.1533 43.379C27.5346 43.379 27.8756 43.4707 28.1763 43.654C28.4843 43.83 28.7226 44.072 28.8913 44.38C29.1186 44.0427 29.39 43.7933 29.7053 43.632C30.028 43.4633 30.3873 43.379 30.7833 43.379C31.3773 43.379 31.8613 43.577 32.2353 43.973C32.6166 44.369 32.8073 44.8823 32.8073 45.513V49H32.0043V45.678C32.0043 45.194 31.876 44.809 31.6193 44.523C31.3626 44.237 31.0143 44.094 30.5743 44.094C30.2736 44.094 29.9986 44.171 29.7493 44.325C29.5 44.479 29.2873 44.7027 29.1113 44.996C29.126 45.0767 29.137 45.161 29.1443 45.249C29.159 45.3297 29.1663 45.4177 29.1663 45.513V49H28.3633V45.678C28.3633 45.194 28.235 44.809 27.9783 44.523C27.7216 44.237 27.377 44.094 26.9443 44.094C26.651 44.094 26.3833 44.1637 26.1413 44.303C25.9066 44.435 25.705 44.633 25.5363 44.897V49H24.7223ZM35.9134 49.099C35.3121 49.099 34.8208 48.945 34.4394 48.637C34.0654 48.329 33.8784 47.9293 33.8784 47.438C33.8784 46.9247 34.0764 46.5177 34.4724 46.217C34.8684 45.909 35.4038 45.755 36.0784 45.755C36.3718 45.755 36.6541 45.788 36.9254 45.854C37.2041 45.92 37.4608 46.0117 37.6954 46.129V45.403C37.6954 44.963 37.5708 44.633 37.3214 44.413C37.0721 44.1857 36.7091 44.072 36.2324 44.072C35.9611 44.072 35.6861 44.1123 35.4074 44.193C35.1361 44.2663 34.8354 44.3873 34.5054 44.556L34.1974 43.929C34.5934 43.7383 34.9601 43.599 35.2974 43.511C35.6348 43.423 35.9721 43.379 36.3094 43.379C37.0061 43.379 37.5414 43.544 37.9154 43.874C38.2968 44.204 38.4874 44.677 38.4874 45.293V49H37.6954V48.461C37.4461 48.6737 37.1711 48.835 36.8704 48.945C36.5771 49.0477 36.2581 49.099 35.9134 49.099ZM34.6594 47.416C34.6594 47.724 34.7878 47.977 35.0444 48.175C35.3084 48.3657 35.6458 48.461 36.0564 48.461C36.3864 48.461 36.6871 48.4097 36.9584 48.307C37.2298 48.2043 37.4754 48.043 37.6954 47.823V46.789C37.4681 46.635 37.2224 46.525 36.9584 46.459C36.7018 46.3857 36.4158 46.349 36.1004 46.349C35.6604 46.349 35.3084 46.448 35.0444 46.646C34.7878 46.8367 34.6594 47.0933 34.6594 47.416ZM46.5116 49V48.417C46.2769 48.637 46.0056 48.8057 45.6976 48.923C45.3969 49.033 45.0742 49.088 44.7296 49.088C44.3409 49.088 43.9779 49.0147 43.6406 48.868C43.3032 48.7213 43.0099 48.5233 42.7606 48.274C42.5112 48.0173 42.3132 47.713 42.1666 47.361C42.0272 47.009 41.9576 46.635 41.9576 46.239C41.9576 45.843 42.0272 45.4727 42.1666 45.128C42.3132 44.776 42.5112 44.4753 42.7606 44.226C43.0099 43.9693 43.3032 43.7677 43.6406 43.621C43.9852 43.4743 44.3519 43.401 44.7406 43.401C45.0559 43.401 45.3639 43.456 45.6646 43.566C45.9726 43.6687 46.2512 43.8227 46.5006 44.028V41.3L47.3146 41.113V49H46.5116ZM42.7606 46.228C42.7606 46.5287 42.8119 46.811 42.9146 47.075C43.0246 47.339 43.1712 47.5663 43.3546 47.757C43.5379 47.9477 43.7542 48.098 44.0036 48.208C44.2529 48.318 44.5206 48.373 44.8066 48.373C45.1512 48.373 45.4702 48.307 45.7636 48.175C46.0642 48.0357 46.3099 47.845 46.5006 47.603V44.875C46.3099 44.6403 46.0642 44.457 45.7636 44.325C45.4629 44.1857 45.1439 44.116 44.8066 44.116C44.2346 44.116 43.7506 44.3177 43.3546 44.721C42.9586 45.1243 42.7606 45.6267 42.7606 46.228ZM53.3409 48.417C53.0329 48.6443 52.7102 48.8167 52.3729 48.934C52.0429 49.044 51.6799 49.099 51.2839 49.099C50.8879 49.099 50.5139 49.0257 50.1619 48.879C49.8172 48.7323 49.5165 48.5307 49.2599 48.274C49.0105 48.0173 48.8125 47.7167 48.6659 47.372C48.5192 47.02 48.4459 46.6423 48.4459 46.239C48.4459 45.843 48.5155 45.4727 48.6549 45.128C48.8015 44.7833 48.9959 44.4827 49.2379 44.226C49.4799 43.9693 49.7659 43.7677 50.0959 43.621C50.4332 43.4743 50.7889 43.401 51.1629 43.401C51.5295 43.401 51.8705 43.4743 52.1859 43.621C52.5085 43.7677 52.7835 43.9693 53.0109 44.226C53.2455 44.4827 53.4289 44.7833 53.5609 45.128C53.7002 45.4727 53.7699 45.843 53.7699 46.239V46.492H49.2489C49.3075 47.0347 49.5312 47.4857 49.9199 47.845C50.3085 48.2043 50.7742 48.384 51.3169 48.384C51.6029 48.384 51.8815 48.34 52.1529 48.252C52.4242 48.164 52.6515 48.0393 52.8349 47.878L53.3409 48.417ZM51.1409 44.116C50.6642 44.116 50.2499 44.2773 49.8979 44.6C49.5532 44.9227 49.3442 45.337 49.2709 45.843H52.9559C52.8825 45.359 52.6735 44.952 52.3289 44.622C51.9915 44.2847 51.5955 44.116 51.1409 44.116ZM61.2311 48.45L58.2171 42.279V49H57.4251V41.3H58.6131L61.2421 46.767L63.8601 41.3H65.0481V49H64.2451V42.268L61.2311 48.45ZM66.3316 46.239C66.3316 45.843 66.4049 45.469 66.5516 45.117C66.6983 44.765 66.8963 44.4607 67.1456 44.204C67.4023 43.9473 67.7029 43.7457 68.0476 43.599C68.3923 43.4523 68.7589 43.379 69.1476 43.379C69.5363 43.379 69.8993 43.4523 70.2366 43.599C70.5813 43.7457 70.8783 43.9473 71.1276 44.204C71.3843 44.4607 71.5859 44.765 71.7326 45.117C71.8793 45.469 71.9526 45.843 71.9526 46.239C71.9526 46.6423 71.8793 47.02 71.7326 47.372C71.5859 47.724 71.3843 48.0283 71.1276 48.285C70.8783 48.5417 70.5813 48.7433 70.2366 48.89C69.8993 49.0367 69.5363 49.11 69.1476 49.11C68.7589 49.11 68.3923 49.0367 68.0476 48.89C67.7029 48.7433 67.4023 48.5417 67.1456 48.285C66.8963 48.0283 66.6983 47.724 66.5516 47.372C66.4049 47.02 66.3316 46.6423 66.3316 46.239ZM69.1476 48.384C69.4263 48.384 69.6866 48.329 69.9286 48.219C70.1779 48.109 70.3906 47.9587 70.5666 47.768C70.7499 47.57 70.8929 47.3427 70.9956 47.086C71.0983 46.822 71.1496 46.5397 71.1496 46.239C71.1496 45.9383 71.0983 45.6597 70.9956 45.403C70.8929 45.139 70.7499 44.9117 70.5666 44.721C70.3906 44.5303 70.1779 44.38 69.9286 44.27C69.6866 44.16 69.4263 44.105 69.1476 44.105C68.8689 44.105 68.6049 44.16 68.3556 44.27C68.1136 44.38 67.9009 44.5303 67.7176 44.721C67.5416 44.9117 67.3986 45.139 67.2886 45.403C67.1859 45.6597 67.1346 45.9383 67.1346 46.239C67.1346 46.5397 67.1859 46.822 67.2886 47.086C67.3913 47.3427 67.5306 47.57 67.7066 47.768C67.8899 47.9587 68.1063 48.109 68.3556 48.219C68.6049 48.329 68.8689 48.384 69.1476 48.384ZM73.0836 49V43.489H73.8976V44.138C74.1103 43.8887 74.3633 43.7017 74.6566 43.577C74.95 43.445 75.2763 43.379 75.6356 43.379C76.259 43.379 76.7686 43.577 77.1646 43.973C77.5606 44.369 77.7586 44.8823 77.7586 45.513V49H76.9556V45.678C76.9556 45.194 76.8163 44.809 76.5376 44.523C76.259 44.237 75.885 44.094 75.4156 44.094C75.0856 44.094 74.7886 44.1673 74.5246 44.314C74.268 44.4607 74.059 44.6697 73.8976 44.941V49H73.0836ZM79.5277 42.433C79.3811 42.433 79.2527 42.378 79.1427 42.268C79.0327 42.158 78.9777 42.0297 78.9777 41.883C78.9777 41.729 79.0327 41.6007 79.1427 41.498C79.2527 41.388 79.3811 41.333 79.5277 41.333C79.6817 41.333 79.8101 41.388 79.9127 41.498C80.0227 41.6007 80.0777 41.729 80.0777 41.883C80.0777 42.0297 80.0227 42.158 79.9127 42.268C79.8101 42.378 79.6817 42.433 79.5277 42.433ZM79.9347 43.489V49H79.1207V43.489H79.9347ZM82.0049 47.768V44.182H80.8169V43.489H82.0049V42.092L82.8079 41.883V43.489H84.4689V44.182H82.8079V47.559C82.8079 47.8523 82.8739 48.065 83.0059 48.197C83.1379 48.3217 83.3542 48.384 83.6549 48.384C83.8089 48.384 83.9445 48.373 84.0619 48.351C84.1865 48.329 84.3185 48.2923 84.4579 48.241V48.956C84.3185 49.0073 84.1609 49.044 83.9849 49.066C83.8162 49.088 83.6512 49.099 83.4899 49.099C83.0132 49.099 82.6465 48.9853 82.3899 48.758C82.1332 48.5307 82.0049 48.2007 82.0049 47.768ZM84.9156 46.239C84.9156 45.843 84.9889 45.469 85.1356 45.117C85.2823 44.765 85.4803 44.4607 85.7296 44.204C85.9863 43.9473 86.2869 43.7457 86.6316 43.599C86.9763 43.4523 87.3429 43.379 87.7316 43.379C88.1203 43.379 88.4833 43.4523 88.8206 43.599C89.1653 43.7457 89.4623 43.9473 89.7116 44.204C89.9683 44.4607 90.1699 44.765 90.3166 45.117C90.4633 45.469 90.5366 45.843 90.5366 46.239C90.5366 46.6423 90.4633 47.02 90.3166 47.372C90.1699 47.724 89.9683 48.0283 89.7116 48.285C89.4623 48.5417 89.1653 48.7433 88.8206 48.89C88.4833 49.0367 88.1203 49.11 87.7316 49.11C87.3429 49.11 86.9763 49.0367 86.6316 48.89C86.2869 48.7433 85.9863 48.5417 85.7296 48.285C85.4803 48.0283 85.2823 47.724 85.1356 47.372C84.9889 47.02 84.9156 46.6423 84.9156 46.239ZM87.7316 48.384C88.0103 48.384 88.2706 48.329 88.5126 48.219C88.7619 48.109 88.9746 47.9587 89.1506 47.768C89.3339 47.57 89.4769 47.3427 89.5796 47.086C89.6823 46.822 89.7336 46.5397 89.7336 46.239C89.7336 45.9383 89.6823 45.6597 89.5796 45.403C89.4769 45.139 89.3339 44.9117 89.1506 44.721C88.9746 44.5303 88.7619 44.38 88.5126 44.27C88.2706 44.16 88.0103 44.105 87.7316 44.105C87.4529 44.105 87.1889 44.16 86.9396 44.27C86.6976 44.38 86.4849 44.5303 86.3016 44.721C86.1256 44.9117 85.9826 45.139 85.8726 45.403C85.7699 45.6597 85.7186 45.9383 85.7186 46.239C85.7186 46.5397 85.7699 46.822 85.8726 47.086C85.9753 47.3427 86.1146 47.57 86.2906 47.768C86.4739 47.9587 86.6903 48.109 86.9396 48.219C87.1889 48.329 87.4529 48.384 87.7316 48.384ZM91.6676 49V43.489H92.4816V44.27C92.6429 43.984 92.8556 43.764 93.1196 43.61C93.3836 43.4487 93.6843 43.368 94.0216 43.368C94.1243 43.368 94.2159 43.3753 94.2966 43.39C94.3773 43.3973 94.4579 43.4157 94.5386 43.445V44.193C94.4433 44.1637 94.3479 44.1417 94.2526 44.127C94.1573 44.105 94.0619 44.094 93.9666 44.094C93.6293 44.094 93.3323 44.193 93.0756 44.391C92.8189 44.5817 92.6209 44.8603 92.4816 45.227V49H91.6676ZM96.9183 49.099C96.317 49.099 95.8256 48.945 95.4443 48.637C95.0703 48.329 94.8833 47.9293 94.8833 47.438C94.8833 46.9247 95.0813 46.5177 95.4773 46.217C95.8733 45.909 96.4086 45.755 97.0833 45.755C97.3766 45.755 97.659 45.788 97.9303 45.854C98.209 45.92 98.4656 46.0117 98.7003 46.129V45.403C98.7003 44.963 98.5756 44.633 98.3263 44.413C98.077 44.1857 97.714 44.072 97.2373 44.072C96.966 44.072 96.691 44.1123 96.4123 44.193C96.141 44.2663 95.8403 44.3873 95.5103 44.556L95.2023 43.929C95.5983 43.7383 95.965 43.599 96.3023 43.511C96.6396 43.423 96.977 43.379 97.3143 43.379C98.011 43.379 98.5463 43.544 98.9203 43.874C99.3016 44.204 99.4923 44.677 99.4923 45.293V49H98.7003V48.461C98.451 48.6737 98.176 48.835 97.8753 48.945C97.582 49.0477 97.263 49.099 96.9183 49.099ZM95.6643 47.416C95.6643 47.724 95.7926 47.977 96.0493 48.175C96.3133 48.3657 96.6506 48.461 97.0613 48.461C97.3913 48.461 97.692 48.4097 97.9633 48.307C98.2346 48.2043 98.4803 48.043 98.7003 47.823V46.789C98.473 46.635 98.2273 46.525 97.9633 46.459C97.7066 46.3857 97.4206 46.349 97.1053 46.349C96.6653 46.349 96.3133 46.448 96.0493 46.646C95.7926 46.8367 95.6643 47.0933 95.6643 47.416ZM100.852 49V43.489H101.666V44.094C101.872 43.8593 102.11 43.6833 102.381 43.566C102.653 43.4413 102.953 43.379 103.283 43.379C103.665 43.379 104.006 43.4707 104.306 43.654C104.614 43.83 104.853 44.072 105.021 44.38C105.249 44.0427 105.52 43.7933 105.835 43.632C106.158 43.4633 106.517 43.379 106.913 43.379C107.507 43.379 107.991 43.577 108.365 43.973C108.747 44.369 108.937 44.8823 108.937 45.513V49H108.134V45.678C108.134 45.194 108.006 44.809 107.749 44.523C107.493 44.237 107.144 44.094 106.704 44.094C106.404 44.094 106.129 44.171 105.879 44.325C105.63 44.479 105.417 44.7027 105.241 44.996C105.256 45.0767 105.267 45.161 105.274 45.249C105.289 45.3297 105.296 45.4177 105.296 45.513V49H104.493V45.678C104.493 45.194 104.365 44.809 104.108 44.523C103.852 44.237 103.507 44.094 103.074 44.094C102.781 44.094 102.513 44.1637 102.271 44.303C102.037 44.435 101.835 44.633 101.666 44.897V49H100.852ZM114.947 48.417C114.639 48.6443 114.317 48.8167 113.979 48.934C113.649 49.044 113.286 49.099 112.89 49.099C112.494 49.099 112.12 49.0257 111.768 48.879C111.424 48.7323 111.123 48.5307 110.866 48.274C110.617 48.0173 110.419 47.7167 110.272 47.372C110.126 47.02 110.052 46.6423 110.052 46.239C110.052 45.843 110.122 45.4727 110.261 45.128C110.408 44.7833 110.602 44.4827 110.844 44.226C111.086 43.9693 111.372 43.7677 111.702 43.621C112.04 43.4743 112.395 43.401 112.769 43.401C113.136 43.401 113.477 43.4743 113.792 43.621C114.115 43.7677 114.39 43.9693 114.617 44.226C114.852 44.4827 115.035 44.7833 115.167 45.128C115.307 45.4727 115.376 45.843 115.376 46.239V46.492H110.855C110.914 47.0347 111.138 47.4857 111.526 47.845C111.915 48.2043 112.381 48.384 112.923 48.384C113.209 48.384 113.488 48.34 113.759 48.252C114.031 48.164 114.258 48.0393 114.441 47.878L114.947 48.417ZM112.747 44.116C112.271 44.116 111.856 44.2773 111.504 44.6C111.16 44.9227 110.951 45.337 110.877 45.843H114.562C114.489 45.359 114.28 44.952 113.935 44.622C113.598 44.2847 113.202 44.116 112.747 44.116ZM116.514 49V43.489H117.328V44.138C117.541 43.8887 117.794 43.7017 118.087 43.577C118.381 43.445 118.707 43.379 119.066 43.379C119.69 43.379 120.199 43.577 120.595 43.973C120.991 44.369 121.189 44.8823 121.189 45.513V49H120.386V45.678C120.386 45.194 120.247 44.809 119.968 44.523C119.69 44.237 119.316 44.094 118.846 44.094C118.516 44.094 118.219 44.1673 117.955 44.314C117.699 44.4607 117.49 44.6697 117.328 44.941V49H116.514ZM123.019 47.768V44.182H121.831V43.489H123.019V42.092L123.822 41.883V43.489H125.483V44.182H123.822V47.559C123.822 47.8523 123.888 48.065 124.02 48.197C124.152 48.3217 124.368 48.384 124.669 48.384C124.823 48.384 124.958 48.373 125.076 48.351C125.2 48.329 125.332 48.2923 125.472 48.241V48.956C125.332 49.0073 125.175 49.044 124.999 49.066C124.83 49.088 124.665 49.099 124.504 49.099C124.027 49.099 123.66 48.9853 123.404 48.758C123.147 48.5307 123.019 48.2007 123.019 47.768ZM125.929 46.239C125.929 45.843 126.003 45.469 126.149 45.117C126.296 44.765 126.494 44.4607 126.743 44.204C127 43.9473 127.301 43.7457 127.645 43.599C127.99 43.4523 128.357 43.379 128.745 43.379C129.134 43.379 129.497 43.4523 129.834 43.599C130.179 43.7457 130.476 43.9473 130.725 44.204C130.982 44.4607 131.184 44.765 131.33 45.117C131.477 45.469 131.55 45.843 131.55 46.239C131.55 46.6423 131.477 47.02 131.33 47.372C131.184 47.724 130.982 48.0283 130.725 48.285C130.476 48.5417 130.179 48.7433 129.834 48.89C129.497 49.0367 129.134 49.11 128.745 49.11C128.357 49.11 127.99 49.0367 127.645 48.89C127.301 48.7433 127 48.5417 126.743 48.285C126.494 48.0283 126.296 47.724 126.149 47.372C126.003 47.02 125.929 46.6423 125.929 46.239ZM128.745 48.384C129.024 48.384 129.284 48.329 129.526 48.219C129.776 48.109 129.988 47.9587 130.164 47.768C130.348 47.57 130.491 47.3427 130.593 47.086C130.696 46.822 130.747 46.5397 130.747 46.239C130.747 45.9383 130.696 45.6597 130.593 45.403C130.491 45.139 130.348 44.9117 130.164 44.721C129.988 44.5303 129.776 44.38 129.526 44.27C129.284 44.16 129.024 44.105 128.745 44.105C128.467 44.105 128.203 44.16 127.953 44.27C127.711 44.38 127.499 44.5303 127.315 44.721C127.139 44.9117 126.996 45.139 126.886 45.403C126.784 45.6597 126.732 45.9383 126.732 46.239C126.732 46.5397 126.784 46.822 126.886 47.086C126.989 47.3427 127.128 47.57 127.304 47.768C127.488 47.9587 127.704 48.109 127.953 48.219C128.203 48.329 128.467 48.384 128.745 48.384ZM139.346 49V48.417C139.111 48.637 138.84 48.8057 138.532 48.923C138.231 49.033 137.908 49.088 137.564 49.088C137.175 49.088 136.812 49.0147 136.475 48.868C136.137 48.7213 135.844 48.5233 135.595 48.274C135.345 48.0173 135.147 47.713 135.001 47.361C134.861 47.009 134.792 46.635 134.792 46.239C134.792 45.843 134.861 45.4727 135.001 45.128C135.147 44.776 135.345 44.4753 135.595 44.226C135.844 43.9693 136.137 43.7677 136.475 43.621C136.819 43.4743 137.186 43.401 137.575 43.401C137.89 43.401 138.198 43.456 138.499 43.566C138.807 43.6687 139.085 43.8227 139.335 44.028V41.3L140.149 41.113V49H139.346ZM135.595 46.228C135.595 46.5287 135.646 46.811 135.749 47.075C135.859 47.339 136.005 47.5663 136.189 47.757C136.372 47.9477 136.588 48.098 136.838 48.208C137.087 48.318 137.355 48.373 137.641 48.373C137.985 48.373 138.304 48.307 138.598 48.175C138.898 48.0357 139.144 47.845 139.335 47.603V44.875C139.144 44.6403 138.898 44.457 138.598 44.325C138.297 44.1857 137.978 44.116 137.641 44.116C137.069 44.116 136.585 44.3177 136.189 44.721C135.793 45.1243 135.595 45.6267 135.595 46.228ZM146.175 48.417C145.867 48.6443 145.544 48.8167 145.207 48.934C144.877 49.044 144.514 49.099 144.118 49.099C143.722 49.099 143.348 49.0257 142.996 48.879C142.651 48.7323 142.351 48.5307 142.094 48.274C141.845 48.0173 141.647 47.7167 141.5 47.372C141.353 47.02 141.28 46.6423 141.28 46.239C141.28 45.843 141.35 45.4727 141.489 45.128C141.636 44.7833 141.83 44.4827 142.072 44.226C142.314 43.9693 142.6 43.7677 142.93 43.621C143.267 43.4743 143.623 43.401 143.997 43.401C144.364 43.401 144.705 43.4743 145.02 43.621C145.343 43.7677 145.618 43.9693 145.845 44.226C146.08 44.4827 146.263 44.7833 146.395 45.128C146.534 45.4727 146.604 45.843 146.604 46.239V46.492H142.083C142.142 47.0347 142.365 47.4857 142.754 47.845C143.143 48.2043 143.608 48.384 144.151 48.384C144.437 48.384 144.716 48.34 144.987 48.252C145.258 48.164 145.486 48.0393 145.669 47.878L146.175 48.417ZM143.975 44.116C143.498 44.116 143.084 44.2773 142.732 44.6C142.387 44.9227 142.178 45.337 142.105 45.843H145.79C145.717 45.359 145.508 44.952 145.163 44.622C144.826 44.2847 144.43 44.116 143.975 44.116ZM152.624 49.088C152.235 49.088 151.872 49.0147 151.535 48.868C151.198 48.7213 150.904 48.5233 150.655 48.274C150.406 48.0173 150.208 47.713 150.061 47.361C149.922 47.009 149.852 46.635 149.852 46.239C149.852 45.843 149.922 45.4727 150.061 45.128C150.208 44.776 150.406 44.4753 150.655 44.226C150.904 43.9693 151.198 43.7677 151.535 43.621C151.88 43.4743 152.246 43.401 152.635 43.401C152.965 43.401 153.28 43.456 153.581 43.566C153.889 43.676 154.164 43.83 154.406 44.028V43.489H155.209V51.255H154.395V48.428C154.16 48.6407 153.889 48.8057 153.581 48.923C153.28 49.033 152.961 49.088 152.624 49.088ZM150.655 46.228C150.655 46.5287 150.706 46.811 150.809 47.075C150.919 47.339 151.066 47.5663 151.249 47.757C151.432 47.9477 151.649 48.098 151.898 48.208C152.147 48.318 152.415 48.373 152.701 48.373C153.046 48.373 153.365 48.307 153.658 48.175C153.959 48.0357 154.204 47.845 154.395 47.603V44.875C154.204 44.6403 153.959 44.457 153.658 44.325C153.357 44.1857 153.038 44.116 152.701 44.116C152.129 44.116 151.645 44.3177 151.249 44.721C150.853 45.1243 150.655 45.6267 150.655 46.228ZM157.374 43.489V46.811C157.374 47.295 157.514 47.68 157.792 47.966C158.071 48.252 158.445 48.395 158.914 48.395C159.244 48.395 159.538 48.3217 159.794 48.175C160.058 48.021 160.271 47.8083 160.432 47.537V43.489H161.246V49H160.432V48.362C160.22 48.6113 159.967 48.7983 159.673 48.923C159.387 49.0477 159.065 49.11 158.705 49.11C158.075 49.11 157.561 48.912 157.165 48.516C156.769 48.12 156.571 47.6067 156.571 46.976V43.489H157.374ZM164.369 49.099C163.767 49.099 163.276 48.945 162.895 48.637C162.521 48.329 162.334 47.9293 162.334 47.438C162.334 46.9247 162.532 46.5177 162.928 46.217C163.324 45.909 163.859 45.755 164.534 45.755C164.827 45.755 165.109 45.788 165.381 45.854C165.659 45.92 165.916 46.0117 166.151 46.129V45.403C166.151 44.963 166.026 44.633 165.777 44.413C165.527 44.1857 165.164 44.072 164.688 44.072C164.416 44.072 164.141 44.1123 163.863 44.193C163.591 44.2663 163.291 44.3873 162.961 44.556L162.653 43.929C163.049 43.7383 163.415 43.599 163.753 43.511C164.09 43.423 164.427 43.379 164.764 43.379C165.461 43.379 165.997 43.544 166.371 43.874C166.752 44.204 166.943 44.677 166.943 45.293V49H166.151V48.461C165.901 48.6737 165.626 48.835 165.326 48.945C165.032 49.0477 164.713 49.099 164.369 49.099ZM163.115 47.416C163.115 47.724 163.243 47.977 163.5 48.175C163.764 48.3657 164.101 48.461 164.512 48.461C164.842 48.461 165.142 48.4097 165.414 48.307C165.685 48.2043 165.931 48.043 166.151 47.823V46.789C165.923 46.635 165.678 46.525 165.414 46.459C165.157 46.3857 164.871 46.349 164.556 46.349C164.116 46.349 163.764 46.448 163.5 46.646C163.243 46.8367 163.115 47.0933 163.115 47.416ZM169.116 41.113V49H168.302V41.3L169.116 41.113ZM170.912 42.433C170.765 42.433 170.637 42.378 170.527 42.268C170.417 42.158 170.362 42.0297 170.362 41.883C170.362 41.729 170.417 41.6007 170.527 41.498C170.637 41.388 170.765 41.333 170.912 41.333C171.066 41.333 171.194 41.388 171.297 41.498C171.407 41.6007 171.462 41.729 171.462 41.883C171.462 42.0297 171.407 42.158 171.297 42.268C171.194 42.378 171.066 42.433 170.912 42.433ZM171.319 43.489V49H170.505V43.489H171.319ZM177.008 49V48.417C176.773 48.637 176.502 48.8057 176.194 48.923C175.893 49.033 175.57 49.088 175.226 49.088C174.837 49.088 174.474 49.0147 174.137 48.868C173.799 48.7213 173.506 48.5233 173.257 48.274C173.007 48.0173 172.809 47.713 172.663 47.361C172.523 47.009 172.454 46.635 172.454 46.239C172.454 45.843 172.523 45.4727 172.663 45.128C172.809 44.776 173.007 44.4753 173.257 44.226C173.506 43.9693 173.799 43.7677 174.137 43.621C174.481 43.4743 174.848 43.401 175.237 43.401C175.552 43.401 175.86 43.456 176.161 43.566C176.469 43.6687 176.747 43.8227 176.997 44.028V41.3L177.811 41.113V49H177.008ZM173.257 46.228C173.257 46.5287 173.308 46.811 173.411 47.075C173.521 47.339 173.667 47.5663 173.851 47.757C174.034 47.9477 174.25 48.098 174.5 48.208C174.749 48.318 175.017 48.373 175.303 48.373C175.647 48.373 175.966 48.307 176.26 48.175C176.56 48.0357 176.806 47.845 176.997 47.603V44.875C176.806 44.6403 176.56 44.457 176.26 44.325C175.959 44.1857 175.64 44.116 175.303 44.116C174.731 44.116 174.247 44.3177 173.851 44.721C173.455 45.1243 173.257 45.6267 173.257 46.228ZM180.933 49.099C180.332 49.099 179.84 48.945 179.459 48.637C179.085 48.329 178.898 47.9293 178.898 47.438C178.898 46.9247 179.096 46.5177 179.492 46.217C179.888 45.909 180.423 45.755 181.098 45.755C181.391 45.755 181.674 45.788 181.945 45.854C182.224 45.92 182.48 46.0117 182.715 46.129V45.403C182.715 44.963 182.59 44.633 182.341 44.413C182.092 44.1857 181.729 44.072 181.252 44.072C180.981 44.072 180.706 44.1123 180.427 44.193C180.156 44.2663 179.855 44.3873 179.525 44.556L179.217 43.929C179.613 43.7383 179.98 43.599 180.317 43.511C180.654 43.423 180.992 43.379 181.329 43.379C182.026 43.379 182.561 43.544 182.935 43.874C183.316 44.204 183.507 44.677 183.507 45.293V49H182.715V48.461C182.466 48.6737 182.191 48.835 181.89 48.945C181.597 49.0477 181.278 49.099 180.933 49.099ZM179.679 47.416C179.679 47.724 179.807 47.977 180.064 48.175C180.328 48.3657 180.665 48.461 181.076 48.461C181.406 48.461 181.707 48.4097 181.978 48.307C182.249 48.2043 182.495 48.043 182.715 47.823V46.789C182.488 46.635 182.242 46.525 181.978 46.459C181.721 46.3857 181.435 46.349 181.12 46.349C180.68 46.349 180.328 46.448 180.064 46.646C179.807 46.8367 179.679 47.0933 179.679 47.416ZM189.168 49V48.417C188.933 48.637 188.662 48.8057 188.354 48.923C188.053 49.033 187.73 49.088 187.386 49.088C186.997 49.088 186.634 49.0147 186.297 48.868C185.959 48.7213 185.666 48.5233 185.417 48.274C185.167 48.0173 184.969 47.713 184.823 47.361C184.683 47.009 184.614 46.635 184.614 46.239C184.614 45.843 184.683 45.4727 184.823 45.128C184.969 44.776 185.167 44.4753 185.417 44.226C185.666 43.9693 185.959 43.7677 186.297 43.621C186.641 43.4743 187.008 43.401 187.397 43.401C187.712 43.401 188.02 43.456 188.321 43.566C188.629 43.6687 188.907 43.8227 189.157 44.028V41.3L189.971 41.113V49H189.168ZM185.417 46.228C185.417 46.5287 185.468 46.811 185.571 47.075C185.681 47.339 185.827 47.5663 186.011 47.757C186.194 47.9477 186.41 48.098 186.66 48.208C186.909 48.318 187.177 48.373 187.463 48.373C187.807 48.373 188.126 48.307 188.42 48.175C188.72 48.0357 188.966 47.845 189.157 47.603V44.875C188.966 44.6403 188.72 44.457 188.42 44.325C188.119 44.1857 187.8 44.116 187.463 44.116C186.891 44.116 186.407 44.3177 186.011 44.721C185.615 45.1243 185.417 45.6267 185.417 46.228ZM195.997 48.417C195.689 48.6443 195.366 48.8167 195.029 48.934C194.699 49.044 194.336 49.099 193.94 49.099C193.544 49.099 193.17 49.0257 192.818 48.879C192.473 48.7323 192.173 48.5307 191.916 48.274C191.667 48.0173 191.469 47.7167 191.322 47.372C191.175 47.02 191.102 46.6423 191.102 46.239C191.102 45.843 191.172 45.4727 191.311 45.128C191.458 44.7833 191.652 44.4827 191.894 44.226C192.136 43.9693 192.422 43.7677 192.752 43.621C193.089 43.4743 193.445 43.401 193.819 43.401C194.186 43.401 194.527 43.4743 194.842 43.621C195.165 43.7677 195.44 43.9693 195.667 44.226C195.902 44.4827 196.085 44.7833 196.217 45.128C196.356 45.4727 196.426 45.843 196.426 46.239V46.492H191.905C191.964 47.0347 192.187 47.4857 192.576 47.845C192.965 48.2043 193.43 48.384 193.973 48.384C194.259 48.384 194.538 48.34 194.809 48.252C195.08 48.164 195.308 48.0393 195.491 47.878L195.997 48.417ZM193.797 44.116C193.32 44.116 192.906 44.2773 192.554 44.6C192.209 44.9227 192 45.337 191.927 45.843H195.612C195.539 45.359 195.33 44.952 194.985 44.622C194.648 44.2847 194.252 44.116 193.797 44.116ZM204.228 49V48.417C203.994 48.637 203.722 48.8057 203.414 48.923C203.114 49.033 202.791 49.088 202.446 49.088C202.058 49.088 201.695 49.0147 201.357 48.868C201.02 48.7213 200.727 48.5233 200.477 48.274C200.228 48.0173 200.03 47.713 199.883 47.361C199.744 47.009 199.674 46.635 199.674 46.239C199.674 45.843 199.744 45.4727 199.883 45.128C200.03 44.776 200.228 44.4753 200.477 44.226C200.727 43.9693 201.02 43.7677 201.357 43.621C201.702 43.4743 202.069 43.401 202.457 43.401C202.773 43.401 203.081 43.456 203.381 43.566C203.689 43.6687 203.968 43.8227 204.217 44.028V41.3L205.031 41.113V49H204.228ZM200.477 46.228C200.477 46.5287 200.529 46.811 200.631 47.075C200.741 47.339 200.888 47.5663 201.071 47.757C201.255 47.9477 201.471 48.098 201.72 48.208C201.97 48.318 202.237 48.373 202.523 48.373C202.868 48.373 203.187 48.307 203.48 48.175C203.781 48.0357 204.027 47.845 204.217 47.603V44.875C204.027 44.6403 203.781 44.457 203.48 44.325C203.18 44.1857 202.861 44.116 202.523 44.116C201.951 44.116 201.467 44.3177 201.071 44.721C200.675 45.1243 200.477 45.6267 200.477 46.228ZM211.058 48.417C210.75 48.6443 210.427 48.8167 210.09 48.934C209.76 49.044 209.397 49.099 209.001 49.099C208.605 49.099 208.231 49.0257 207.879 48.879C207.534 48.7323 207.233 48.5307 206.977 48.274C206.727 48.0173 206.529 47.7167 206.383 47.372C206.236 47.02 206.163 46.6423 206.163 46.239C206.163 45.843 206.232 45.4727 206.372 45.128C206.518 44.7833 206.713 44.4827 206.955 44.226C207.197 43.9693 207.483 43.7677 207.813 43.621C208.15 43.4743 208.506 43.401 208.88 43.401C209.246 43.401 209.587 43.4743 209.903 43.621C210.225 43.7677 210.5 43.9693 210.728 44.226C210.962 44.4827 211.146 44.7833 211.278 45.128C211.417 45.4727 211.487 45.843 211.487 46.239V46.492H206.966C207.024 47.0347 207.248 47.4857 207.637 47.845C208.025 48.2043 208.491 48.384 209.034 48.384C209.32 48.384 209.598 48.34 209.87 48.252C210.141 48.164 210.368 48.0393 210.552 47.878L211.058 48.417ZM208.858 44.116C208.381 44.116 207.967 44.2773 207.615 44.6C207.27 44.9227 207.061 45.337 206.988 45.843H210.673C210.599 45.359 210.39 44.952 210.046 44.622C209.708 44.2847 209.312 44.116 208.858 44.116ZM214.339 49L217.54 41.3H218.563L221.72 49H220.796L219.828 46.58H216.198L215.219 49H214.339ZM216.495 45.854H219.531L218.024 42.092L216.495 45.854ZM218.475 38.935H219.52L218.156 40.211H217.441L218.475 38.935ZM224.661 49.044C224.279 49.044 223.92 48.9707 223.583 48.824C223.253 48.6773 222.963 48.4793 222.714 48.23C222.464 47.9733 222.266 47.6727 222.12 47.328C221.98 46.9833 221.911 46.613 221.911 46.217C221.911 45.821 221.98 45.4507 222.12 45.106C222.266 44.7613 222.464 44.4643 222.714 44.215C222.963 43.9583 223.256 43.7567 223.594 43.61C223.931 43.4633 224.294 43.39 224.683 43.39C224.998 43.39 225.302 43.4487 225.596 43.566C225.896 43.676 226.171 43.8337 226.421 44.039V43.489H227.224V49.132C227.224 49.836 227.018 50.375 226.608 50.749C226.197 51.1303 225.61 51.321 224.848 51.321C224.466 51.321 224.089 51.2697 223.715 51.167C223.341 51.0717 223 50.9323 222.692 50.749L223.044 50.111C223.374 50.287 223.678 50.4153 223.957 50.496C224.243 50.5767 224.529 50.617 224.815 50.617C225.335 50.617 225.731 50.4923 226.003 50.243C226.274 49.9937 226.41 49.627 226.41 49.143V48.406C226.16 48.6113 225.885 48.769 225.585 48.879C225.291 48.989 224.983 49.044 224.661 49.044ZM222.714 46.217C222.714 46.5103 222.765 46.789 222.868 47.053C222.97 47.3097 223.11 47.5333 223.286 47.724C223.469 47.9073 223.685 48.054 223.935 48.164C224.184 48.274 224.448 48.329 224.727 48.329C225.079 48.329 225.401 48.263 225.695 48.131C225.988 47.999 226.226 47.812 226.41 47.57V44.864C226.226 44.6293 225.984 44.446 225.684 44.314C225.39 44.182 225.071 44.116 224.727 44.116C224.441 44.116 224.173 44.171 223.924 44.281C223.682 44.3837 223.469 44.5303 223.286 44.721C223.11 44.9117 222.97 45.1353 222.868 45.392C222.765 45.6487 222.714 45.9237 222.714 46.217ZM229.39 43.489V46.811C229.39 47.295 229.529 47.68 229.808 47.966C230.087 48.252 230.461 48.395 230.93 48.395C231.26 48.395 231.553 48.3217 231.81 48.175C232.074 48.021 232.287 47.8083 232.448 47.537V43.489H233.262V49H232.448V48.362C232.235 48.6113 231.982 48.7983 231.689 48.923C231.403 49.0477 231.08 49.11 230.721 49.11C230.09 49.11 229.577 48.912 229.181 48.516C228.785 48.12 228.587 47.6067 228.587 46.976V43.489H229.39ZM236.384 49.099C235.783 49.099 235.291 48.945 234.91 48.637C234.536 48.329 234.349 47.9293 234.349 47.438C234.349 46.9247 234.547 46.5177 234.943 46.217C235.339 45.909 235.874 45.755 236.549 45.755C236.842 45.755 237.125 45.788 237.396 45.854C237.675 45.92 237.931 46.0117 238.166 46.129V45.403C238.166 44.963 238.041 44.633 237.792 44.413C237.543 44.1857 237.18 44.072 236.703 44.072C236.432 44.072 236.157 44.1123 235.878 44.193C235.607 44.2663 235.306 44.3873 234.976 44.556L234.668 43.929C235.064 43.7383 235.431 43.599 235.768 43.511C236.105 43.423 236.443 43.379 236.78 43.379C237.477 43.379 238.012 43.544 238.386 43.874C238.767 44.204 238.958 44.677 238.958 45.293V49H238.166V48.461C237.917 48.6737 237.642 48.835 237.341 48.945C237.048 49.0477 236.729 49.099 236.384 49.099ZM235.13 47.416C235.13 47.724 235.258 47.977 235.515 48.175C235.779 48.3657 236.116 48.461 236.527 48.461C236.857 48.461 237.158 48.4097 237.429 48.307C237.7 48.2043 237.946 48.043 238.166 47.823V46.789C237.939 46.635 237.693 46.525 237.429 46.459C237.172 46.3857 236.886 46.349 236.571 46.349C236.131 46.349 235.779 46.448 235.515 46.646C235.258 46.8367 235.13 47.0933 235.13 47.416Z" fill="#E8E8EC"/>
</svg>
