<svg width="24" height="33" viewBox="0 0 24 33" fill="none" xmlns="http://www.w3.org/2000/svg">
<path d="M4.15234 11.0195H19.6719V24.4094C19.6719 25.5139 18.7765 26.4094 17.6719 26.4094H6.15234C5.04778 26.4094 4.15234 25.5139 4.15234 24.4094V11.0195Z" fill="#125470"/>
<rect x="20.2461" y="11.0195" width="3.44879" height="13.6141" rx="1.7244" fill="#125470"/>
<rect x="0.128906" y="11.0195" width="3.44879" height="13.6141" rx="1.7244" fill="#125470"/>
<path fill-rule="evenodd" clip-rule="evenodd" d="M4.15234 9.84116H19.6719C19.6719 9.84116 19.3845 1.84977 12.1995 1.55433C5.01454 1.25889 4.15234 9.84116 4.15234 9.84116ZM7.60114 6.5851C7.60114 5.69723 8.46334 5.40127 8.75074 5.40127C9.03814 5.40127 9.61293 5.40127 9.90033 6.28914C10.1877 7.17702 9.32553 7.47297 8.75074 7.47297C8.17594 7.47297 7.60114 7.47297 7.60114 6.5851ZM15.0735 7.47297C14.4386 7.47297 13.8341 6.93638 13.9239 6.28914C14.0033 5.71706 14.5123 5.40127 15.0735 5.40127C15.6347 5.40127 16.1438 5.71706 16.2231 6.28914C16.3129 6.93638 15.7084 7.47297 15.0735 7.47297Z" fill="#125470" stroke="#125470"/>
<rect x="6.44922" y="24.6328" width="4.02359" height="8.28683" rx="2.0118" fill="#125470"/>
<rect x="13.3477" y="24.6328" width="4.02359" height="8.28683" rx="2.0118" fill="#125470"/>
<rect width="1.16731" height="4.41066" rx="0.583655" transform="matrix(0.686766 -0.726878 0.706426 0.707787 5.11328 1.02734)" fill="#125470"/>
<rect width="1.16684" height="4.69895" rx="0.58342" transform="matrix(-0.696658 -0.717404 0.696658 -0.717404 15.3125 4.36719)" fill="#125470"/>
</svg>
