<svg width="27" height="32" viewBox="0 0 27 32" fill="none" xmlns="http://www.w3.org/2000/svg">
<path d="M19.665 0.016014C19.5991 -0.059986 17.2257 0.0460141 15.1603 2.36001C13.0949 4.67201 13.4127 7.32401 13.4592 7.39201C13.5057 7.46001 16.4042 7.56601 18.2545 4.87601C20.1048 2.18601 19.7309 0.094014 19.665 0.016014ZM26.0858 23.482C25.9928 23.29 21.5812 21.014 21.9919 16.638C22.4027 12.26 25.2372 11.06 25.2818 10.93C25.3263 10.8 24.1251 9.35001 22.8522 8.61601C21.9175 8.09852 20.8831 7.80203 19.8239 7.74801C19.6146 7.74201 18.888 7.55801 17.3942 7.98001C16.41 8.25801 14.1915 9.15801 13.5812 9.19401C12.969 9.23001 11.1477 8.15001 9.18892 7.86401C7.93535 7.61401 6.60623 8.12601 5.65492 8.52001C4.70554 8.91201 2.89979 10.028 1.63654 12.994C0.373294 15.958 1.03398 20.654 1.50673 22.114C1.97948 23.572 2.71767 25.962 3.97317 27.706C5.08917 29.674 6.56942 31.04 7.18748 31.504C7.80554 31.968 9.54929 32.276 10.7583 31.638C11.7309 31.022 13.4863 30.668 14.1799 30.694C14.8716 30.72 16.2356 31.002 17.6325 31.772C18.7389 32.166 19.7851 32.002 20.8333 31.562C21.8815 31.12 23.3985 29.444 25.1694 26.046C25.8417 24.466 26.1478 23.612 26.0858 23.482Z" fill="#125470"/>
</svg>
