<svg width="24" height="33" viewBox="0 0 24 33" fill="none" xmlns="http://www.w3.org/2000/svg">
<path d="M4.02344 10.8594H19.543V24.2492C19.543 25.3538 18.6476 26.2492 17.543 26.2492H6.02344C4.91887 26.2492 4.02344 25.3538 4.02344 24.2492V10.8594Z" fill="#0B5256"/>
<rect x="20.1182" y="10.8594" width="3.44879" height="13.6141" rx="1.7244" fill="#0B5256"/>
<rect y="10.8594" width="3.44879" height="13.6141" rx="1.7244" fill="#0B5256"/>
<path fill-rule="evenodd" clip-rule="evenodd" d="M4.02344 9.681H19.543C19.543 9.681 19.2556 1.68961 12.0706 1.39417C4.88564 1.09873 4.02344 9.681 4.02344 9.681ZM7.47223 6.42494C7.47223 5.53707 8.33443 5.24111 8.62183 5.24111C8.90923 5.24111 9.48403 5.24111 9.77143 6.12899C10.0588 7.01686 9.19663 7.31282 8.62183 7.31282C8.04703 7.31282 7.47223 7.31282 7.47223 6.42494ZM14.9446 7.31282C14.3097 7.31282 13.7052 6.77623 13.795 6.12899C13.8744 5.5569 14.3834 5.24111 14.9446 5.24111C15.5058 5.24111 16.0149 5.5569 16.0942 6.12899C16.184 6.77623 15.5795 7.31282 14.9446 7.31282Z" fill="#0B5256" stroke="#0B5256"/>
<rect x="6.32129" y="24.4727" width="4.02359" height="8.28683" rx="2.0118" fill="#0B5256"/>
<rect x="13.2197" y="24.4727" width="4.02359" height="8.28683" rx="2.0118" fill="#0B5256"/>
<rect width="1.16731" height="4.41066" rx="0.583655" transform="matrix(0.686766 -0.726878 0.706426 0.707787 4.98535 0.867188)" fill="#0B5256"/>
<rect width="1.16684" height="4.69895" rx="0.58342" transform="matrix(-0.696658 -0.717404 0.696658 -0.717404 15.1826 4.20703)" fill="#0B5256"/>
</svg>
