<svg width="833" height="184" viewBox="0 0 833 184" fill="none" xmlns="http://www.w3.org/2000/svg">
<path d="M48.3477 20.4619C48.3477 22.8415 47.9271 24.9277 47.0859 26.7207C46.2448 28.5137 45.0384 29.8971 43.4668 30.8711C41.9062 31.8451 40.1133 32.332 38.0879 32.332C36.0846 32.332 34.2972 31.8506 32.7256 30.8877C31.154 29.9248 29.9365 28.5524 29.0732 26.7705C28.21 24.9775 27.7728 22.9189 27.7617 20.5947V19.3994C27.7617 17.0199 28.1878 14.9281 29.04 13.124C29.9033 11.3089 31.1152 9.91992 32.6758 8.95703C34.2474 7.98307 36.0404 7.49609 38.0547 7.49609C40.069 7.49609 41.8564 7.98307 43.417 8.95703C44.9886 9.91992 46.2005 11.3089 47.0527 13.124C47.916 14.9281 48.3477 17.0143 48.3477 19.3828V20.4619ZM43.3008 19.3662C43.3008 16.8317 42.847 14.9059 41.9395 13.5889C41.0319 12.2718 39.737 11.6133 38.0547 11.6133C36.3835 11.6133 35.0941 12.2663 34.1865 13.5723C33.279 14.8672 32.8197 16.7708 32.8086 19.2832V20.4619C32.8086 22.93 33.2624 24.8447 34.1699 26.2061C35.0775 27.5674 36.3835 28.248 38.0879 28.248C39.7591 28.248 41.043 27.5951 41.9395 26.2891C42.8359 24.972 43.2897 23.0573 43.3008 20.5449V19.3662ZM68.7344 11.8623H61.3301V32H56.3496V11.8623H49.0449V7.82812H68.7344V11.8623ZM76.8857 32H71.9053V7.82812H76.8857V32ZM88.0254 7.82812L94.2344 25.3594L100.41 7.82812H106.951V32H101.954V25.3926L102.452 13.9873L95.9277 32H92.5078L86 14.0039L86.498 25.3926V32H81.5176V7.82812H88.0254ZM116.597 32H111.616V7.82812H116.597V32ZM126.508 27.999H138.693V32H120.282V29.0781L132.235 11.8623H120.299V7.82812H138.428V10.6836L126.508 27.999ZM155.727 27.0195H146.994L145.334 32H140.038L149.036 7.82812H153.651L162.699 32H157.403L155.727 27.0195ZM148.339 22.9854H154.382L151.344 13.9375L148.339 22.9854ZM183.567 23.9482C183.379 26.5492 182.416 28.5967 180.679 30.0908C178.952 31.585 176.672 32.332 173.839 32.332C170.74 32.332 168.299 31.2917 166.518 29.2109C164.747 27.1191 163.861 24.2526 163.861 20.6113V19.1338C163.861 16.8096 164.271 14.762 165.09 12.9912C165.909 11.2204 167.076 9.86458 168.593 8.92383C170.12 7.97201 171.891 7.49609 173.905 7.49609C176.694 7.49609 178.941 8.24316 180.646 9.7373C182.35 11.2314 183.335 13.3288 183.601 16.0293H178.62C178.498 14.4688 178.061 13.3398 177.309 12.6426C176.567 11.9342 175.433 11.5801 173.905 11.5801C172.245 11.5801 171 12.1777 170.17 13.373C169.351 14.5573 168.93 16.4001 168.908 18.9014V20.7275C168.908 23.3395 169.301 25.2487 170.087 26.4551C170.884 27.6615 172.134 28.2646 173.839 28.2646C175.377 28.2646 176.523 27.916 177.275 27.2188C178.039 26.5104 178.476 25.4202 178.587 23.9482H183.567ZM175.665 31.9004L175.482 32.8633C177.143 33.1621 177.973 34.1195 177.973 35.7354C177.973 36.9528 177.464 37.9157 176.445 38.624C175.438 39.3324 174.016 39.6865 172.179 39.6865L172.062 36.9141C173.302 36.9141 173.922 36.4658 173.922 35.5693C173.922 35.1045 173.734 34.7835 173.357 34.6064C172.992 34.4404 172.395 34.3298 171.564 34.2744L172.079 31.9004H175.665ZM200.484 27.0195H191.752L190.092 32H184.796L193.794 7.82812H198.409L207.457 32H202.161L200.484 27.0195ZM193.097 22.9854H199.14L196.102 13.9375L193.097 22.9854ZM202.543 6.00195V6.20117H198.725L196.168 3.79395L193.611 6.20117H189.859V5.93555L194.773 1.35352H197.562L202.543 6.00195ZM229.205 20.4619C229.205 22.8415 228.785 24.9277 227.943 26.7207C227.102 28.5137 225.896 29.8971 224.324 30.8711C222.764 31.8451 220.971 32.332 218.945 32.332C216.942 32.332 215.155 31.8506 213.583 30.8877C212.011 29.9248 210.794 28.5524 209.931 26.7705C209.067 24.9775 208.63 22.9189 208.619 20.5947V19.3994C208.619 17.0199 209.045 14.9281 209.897 13.124C210.761 11.3089 211.973 9.91992 213.533 8.95703C215.105 7.98307 216.898 7.49609 218.912 7.49609C220.926 7.49609 222.714 7.98307 224.274 8.95703C225.846 9.91992 227.058 11.3089 227.91 13.124C228.773 14.9281 229.205 17.0143 229.205 19.3828V20.4619ZM224.158 19.3662C224.158 16.8317 223.704 14.9059 222.797 13.5889C221.889 12.2718 220.594 11.6133 218.912 11.6133C217.241 11.6133 215.951 12.2663 215.044 13.5723C214.136 14.8672 213.677 16.7708 213.666 19.2832V20.4619C213.666 22.93 214.12 24.8447 215.027 26.2061C215.935 27.5674 217.241 28.248 218.945 28.248C220.617 28.248 221.9 27.5951 222.797 26.2891C223.693 24.972 224.147 23.0573 224.158 20.5449V19.3662Z" fill="#F0F0F0"/>
<path d="M251.095 67.5244H241.532V73.999H252.755V78H236.552V53.8281H252.722V57.8623H241.532V63.623H251.095V67.5244ZM274.652 69.9482C274.464 72.5492 273.501 74.5967 271.764 76.0908C270.037 77.585 267.757 78.332 264.924 78.332C261.825 78.332 259.384 77.2917 257.603 75.2109C255.832 73.1191 254.946 70.2526 254.946 66.6113V65.1338C254.946 62.8096 255.356 60.762 256.175 58.9912C256.994 57.2204 258.161 55.8646 259.678 54.9238C261.205 53.972 262.976 53.4961 264.99 53.4961C267.779 53.4961 270.026 54.2432 271.73 55.7373C273.435 57.2314 274.42 59.3288 274.686 62.0293H269.705C269.583 60.4688 269.146 59.3398 268.394 58.6426C267.652 57.9342 266.518 57.5801 264.99 57.5801C263.33 57.5801 262.085 58.1777 261.255 59.373C260.436 60.5573 260.015 62.4001 259.993 64.9014V66.7275C259.993 69.3395 260.386 71.2487 261.172 72.4551C261.969 73.6615 263.219 74.2646 264.924 74.2646C266.462 74.2646 267.608 73.916 268.36 73.2188C269.124 72.5104 269.561 71.4202 269.672 69.9482H274.652ZM297.778 66.4619C297.778 68.8415 297.358 70.9277 296.517 72.7207C295.675 74.5137 294.469 75.8971 292.897 76.8711C291.337 77.8451 289.544 78.332 287.519 78.332C285.515 78.332 283.728 77.8506 282.156 76.8877C280.585 75.9248 279.367 74.5524 278.504 72.7705C277.641 70.9775 277.203 68.9189 277.192 66.5947V65.3994C277.192 63.0199 277.618 60.9281 278.471 59.124C279.334 57.3089 280.546 55.9199 282.106 54.957C283.678 53.9831 285.471 53.4961 287.485 53.4961C289.5 53.4961 291.287 53.9831 292.848 54.957C294.419 55.9199 295.631 57.3089 296.483 59.124C297.347 60.9281 297.778 63.0143 297.778 65.3828V66.4619ZM292.731 65.3662C292.731 62.8317 292.278 60.9059 291.37 59.5889C290.463 58.2718 289.168 57.6133 287.485 57.6133C285.814 57.6133 284.525 58.2663 283.617 59.5723C282.71 60.8672 282.25 62.7708 282.239 65.2832V66.4619C282.239 68.93 282.693 70.8447 283.601 72.2061C284.508 73.5674 285.814 74.248 287.519 74.248C289.19 74.248 290.474 73.5951 291.37 72.2891C292.267 70.972 292.72 69.0573 292.731 66.5449V65.3662ZM321.054 78H316.073L306.378 62.0957V78H301.397V53.8281H306.378L316.09 69.7656V53.8281H321.054V78ZM345.259 66.4619C345.259 68.8415 344.838 70.9277 343.997 72.7207C343.156 74.5137 341.95 75.8971 340.378 76.8711C338.817 77.8451 337.024 78.332 334.999 78.332C332.996 78.332 331.208 77.8506 329.637 76.8877C328.065 75.9248 326.848 74.5524 325.984 72.7705C325.121 70.9775 324.684 68.9189 324.673 66.5947V65.3994C324.673 63.0199 325.099 60.9281 325.951 59.124C326.814 57.3089 328.026 55.9199 329.587 54.957C331.159 53.9831 332.951 53.4961 334.966 53.4961C336.98 53.4961 338.768 53.9831 340.328 54.957C341.9 55.9199 343.112 57.3089 343.964 59.124C344.827 60.9281 345.259 63.0143 345.259 65.3828V66.4619ZM340.212 65.3662C340.212 62.8317 339.758 60.9059 338.851 59.5889C337.943 58.2718 336.648 57.6133 334.966 57.6133C333.295 57.6133 332.005 58.2663 331.098 59.5723C330.19 60.8672 329.731 62.7708 329.72 65.2832V66.4619C329.72 68.93 330.174 70.8447 331.081 72.2061C331.989 73.5674 333.295 74.248 334.999 74.248C336.67 74.248 337.954 73.5951 338.851 72.2891C339.747 70.972 340.201 69.0573 340.212 66.5449V65.3662ZM341.341 52.002V52.2012H337.522L334.966 49.7939L332.409 52.2012H328.657V51.9355L333.571 47.3535H336.36L341.341 52.002ZM355.386 53.8281L361.595 71.3594L367.771 53.8281H374.312V78H369.314V71.3926L369.812 59.9873L363.288 78H359.868L353.36 60.0039L353.858 71.3926V78H348.878V53.8281H355.386ZM383.957 78H378.977V53.8281H383.957V78ZM402.534 73.0195H393.802L392.142 78H386.846L395.844 53.8281H400.459L409.507 78H404.211L402.534 73.0195ZM395.146 68.9854H401.189L398.151 59.9375L395.146 68.9854Z" fill="#F0F0F0"/>
<path d="M434.843 102.862H427.438V123H422.458V102.862H415.153V98.8281H434.843V102.862ZM452.241 112.524H442.679V118.999H453.901V123H437.698V98.8281H453.868V102.862H442.679V108.623H452.241V112.524ZM475.799 114.948C475.611 117.549 474.648 119.597 472.91 121.091C471.184 122.585 468.904 123.332 466.07 123.332C462.971 123.332 460.531 122.292 458.749 120.211C456.978 118.119 456.093 115.253 456.093 111.611V110.134C456.093 107.81 456.502 105.762 457.321 103.991C458.14 102.22 459.308 100.865 460.824 99.9238C462.352 98.972 464.122 98.4961 466.137 98.4961C468.926 98.4961 471.173 99.2432 472.877 100.737C474.581 102.231 475.566 104.329 475.832 107.029H470.852C470.73 105.469 470.293 104.34 469.54 103.643C468.799 102.934 467.664 102.58 466.137 102.58C464.477 102.58 463.231 103.178 462.401 104.373C461.582 105.557 461.162 107.4 461.14 109.901V111.728C461.14 114.34 461.533 116.249 462.318 117.455C463.115 118.661 464.366 119.265 466.07 119.265C467.609 119.265 468.754 118.916 469.507 118.219C470.271 117.51 470.708 116.42 470.818 114.948H475.799ZM498.726 123H493.745L484.05 107.096V123H479.069V98.8281H484.05L493.762 114.766V98.8281H498.726V123ZM522.931 111.462C522.931 113.841 522.51 115.928 521.669 117.721C520.828 119.514 519.621 120.897 518.05 121.871C516.489 122.845 514.696 123.332 512.671 123.332C510.668 123.332 508.88 122.851 507.309 121.888C505.737 120.925 504.52 119.552 503.656 117.771C502.793 115.978 502.356 113.919 502.345 111.595V110.399C502.345 108.02 502.771 105.928 503.623 104.124C504.486 102.309 505.698 100.92 507.259 99.957C508.83 98.9831 510.623 98.4961 512.638 98.4961C514.652 98.4961 516.439 98.9831 518 99.957C519.572 100.92 520.784 102.309 521.636 104.124C522.499 105.928 522.931 108.014 522.931 110.383V111.462ZM517.884 110.366C517.884 107.832 517.43 105.906 516.522 104.589C515.615 103.272 514.32 102.613 512.638 102.613C510.966 102.613 509.677 103.266 508.77 104.572C507.862 105.867 507.403 107.771 507.392 110.283V111.462C507.392 113.93 507.845 115.845 508.753 117.206C509.66 118.567 510.966 119.248 512.671 119.248C514.342 119.248 515.626 118.595 516.522 117.289C517.419 115.972 517.873 114.057 517.884 111.545V110.366ZM531.53 118.999H542.105V123H526.55V98.8281H531.53V118.999ZM563.771 111.462C563.771 113.841 563.35 115.928 562.509 117.721C561.668 119.514 560.461 120.897 558.89 121.871C557.329 122.845 555.536 123.332 553.511 123.332C551.507 123.332 549.72 122.851 548.148 121.888C546.577 120.925 545.359 119.552 544.496 117.771C543.633 115.978 543.196 113.919 543.185 111.595V110.399C543.185 108.02 543.611 105.928 544.463 104.124C545.326 102.309 546.538 100.92 548.099 99.957C549.67 98.9831 551.463 98.4961 553.478 98.4961C555.492 98.4961 557.279 98.9831 558.84 99.957C560.411 100.92 561.623 102.309 562.476 104.124C563.339 105.928 563.771 108.014 563.771 110.383V111.462ZM558.724 110.366C558.724 107.832 558.27 105.906 557.362 104.589C556.455 103.272 555.16 102.613 553.478 102.613C551.806 102.613 550.517 103.266 549.609 104.572C548.702 105.867 548.243 107.771 548.231 110.283V111.462C548.231 113.93 548.685 115.845 549.593 117.206C550.5 118.567 551.806 119.248 553.511 119.248C555.182 119.248 556.466 118.595 557.362 117.289C558.259 115.972 558.713 114.057 558.724 111.545V110.366ZM586.515 119.945C585.618 121.019 584.351 121.854 582.713 122.452C581.075 123.039 579.26 123.332 577.268 123.332C575.176 123.332 573.339 122.878 571.756 121.971C570.184 121.052 568.967 119.724 568.104 117.986C567.251 116.249 566.814 114.207 566.792 111.86V110.217C566.792 107.804 567.196 105.718 568.004 103.958C568.823 102.187 569.996 100.837 571.523 99.9072C573.062 98.9665 574.86 98.4961 576.919 98.4961C579.785 98.4961 582.027 99.1823 583.643 100.555C585.258 101.916 586.216 103.903 586.515 106.515H581.667C581.446 105.131 580.953 104.118 580.189 103.477C579.437 102.835 578.396 102.514 577.068 102.514C575.375 102.514 574.086 103.15 573.2 104.423C572.315 105.696 571.867 107.588 571.855 110.101V111.645C571.855 114.179 572.337 116.094 573.3 117.389C574.263 118.684 575.674 119.331 577.533 119.331C579.404 119.331 580.737 118.933 581.534 118.136V113.969H577.002V110.3H586.515V119.945ZM595.861 123H590.881V98.8281H595.861V123ZM614.438 118.02H605.706L604.046 123H598.75L607.748 98.8281H612.363L621.411 123H616.115L614.438 118.02ZM607.051 113.985H613.094L610.056 104.938L607.051 113.985Z" fill="#F0F0F0"/>
<path d="M648.688 157.462C648.688 159.72 648.323 161.684 647.593 163.355C646.862 165.016 645.85 166.349 644.555 167.356L648.572 170.511L645.401 173.316L640.255 169.183C639.668 169.282 639.06 169.332 638.429 169.332C636.425 169.332 634.638 168.851 633.066 167.888C631.495 166.925 630.277 165.552 629.414 163.771C628.551 161.978 628.114 159.919 628.103 157.595V156.399C628.103 154.02 628.529 151.928 629.381 150.124C630.244 148.309 631.456 146.92 633.017 145.957C634.588 144.983 636.381 144.496 638.396 144.496C640.41 144.496 642.197 144.983 643.758 145.957C645.329 146.92 646.541 148.309 647.394 150.124C648.257 151.928 648.688 154.014 648.688 156.383V157.462ZM643.642 156.366C643.642 153.832 643.188 151.906 642.28 150.589C641.373 149.272 640.078 148.613 638.396 148.613C636.724 148.613 635.435 149.266 634.527 150.572C633.62 151.867 633.16 153.771 633.149 156.283V157.462C633.149 159.93 633.603 161.845 634.511 163.206C635.418 164.567 636.724 165.248 638.429 165.248C640.1 165.248 641.384 164.595 642.28 163.289C643.177 161.972 643.631 160.057 643.642 157.545V156.366ZM670.636 144.828V160.749C670.636 163.394 669.806 165.486 668.146 167.024C666.496 168.563 664.239 169.332 661.372 169.332C658.55 169.332 656.309 168.585 654.648 167.091C652.988 165.597 652.142 163.544 652.108 160.932V144.828H657.089V160.782C657.089 162.365 657.465 163.521 658.218 164.252C658.981 164.971 660.033 165.331 661.372 165.331C664.172 165.331 665.594 163.859 665.639 160.915V144.828H670.636ZM688.001 164.02H679.269L677.608 169H672.312L681.311 144.828H685.926L694.974 169H689.678L688.001 164.02ZM680.613 159.985H686.656L683.618 150.938L680.613 159.985ZM702.212 164.999H712.787V169H697.231V144.828H702.212V164.999ZM720.955 169H715.975V144.828H720.955V169ZM725.587 169V144.828H733.024C735.149 144.828 737.048 145.31 738.719 146.272C740.401 147.224 741.713 148.586 742.653 150.356C743.594 152.116 744.064 154.119 744.064 156.366V157.479C744.064 159.725 743.6 161.723 742.67 163.472C741.751 165.22 740.451 166.576 738.769 167.539C737.086 168.502 735.188 168.989 733.074 169H725.587ZM730.567 148.862V164.999H732.975C734.923 164.999 736.411 164.363 737.44 163.09C738.47 161.817 738.995 159.996 739.018 157.628V156.35C739.018 153.893 738.508 152.033 737.49 150.771C736.472 149.499 734.983 148.862 733.024 148.862H730.567ZM760.981 164.02H752.249L750.589 169H745.293L754.291 144.828H758.906L767.954 169H762.658L760.981 164.02ZM753.594 159.985H759.637L756.599 150.938L753.594 159.985ZM770.212 169V144.828H777.649C779.774 144.828 781.673 145.31 783.344 146.272C785.026 147.224 786.338 148.586 787.278 150.356C788.219 152.116 788.689 154.119 788.689 156.366V157.479C788.689 159.725 788.225 161.723 787.295 163.472C786.376 165.22 785.076 166.576 783.394 167.539C781.711 168.502 779.813 168.989 777.699 169H770.212ZM775.192 148.862V164.999H777.6C779.548 164.999 781.036 164.363 782.065 163.09C783.095 161.817 783.62 159.996 783.643 157.628V156.35C783.643 153.893 783.133 152.033 782.115 150.771C781.097 149.499 779.608 148.862 777.649 148.862H775.192ZM806.868 158.524H797.306V164.999H808.528V169H792.325V144.828H808.495V148.862H797.306V154.623H806.868V158.524Z" fill="#F0F0F0"/>
</svg>
