<svg width="33" height="34" viewBox="0 0 33 34" fill="none" xmlns="http://www.w3.org/2000/svg">
<g clip-path="url(#clip0_483_5174)">
<path d="M23.0627 0.0170149C22.9926 -0.0637351 20.466 0.0488899 18.2674 2.50751C16.0688 4.96401 16.407 7.78176 16.4565 7.85401C16.506 7.92626 19.5915 8.03889 21.5612 5.18076C23.5309 2.32264 23.1328 0.0998899 23.0627 0.0170149V0.0170149ZM29.8978 24.9496C29.7988 24.7456 25.1025 22.3274 25.5398 17.6779C25.977 13.0263 28.9945 11.7513 29.0419 11.6131C29.0893 11.475 27.8106 9.93439 26.4555 9.15452C25.4606 8.60468 24.3595 8.28966 23.2318 8.23226C23.0091 8.22589 22.2357 8.03039 20.6455 8.47876C19.5977 8.77414 17.2362 9.73039 16.5865 9.76864C15.9347 9.80689 13.996 8.65939 11.9108 8.35551C10.5763 8.08989 9.16147 8.63389 8.14878 9.05252C7.13816 9.46902 5.21591 10.6548 3.87116 13.8061C2.52641 16.9554 3.22972 21.9449 3.73297 23.4961C4.23622 25.0453 5.02203 27.5846 6.35853 29.4376C7.54653 31.5286 9.12228 32.98 9.78022 33.473C10.4382 33.966 12.2944 34.2933 13.5814 33.6154C14.6168 32.9609 16.4854 32.5848 17.2238 32.6124C17.9601 32.64 19.4121 32.9396 20.8992 33.7578C22.0768 34.1764 23.1906 34.0021 24.3064 33.5346C25.4222 33.065 27.0372 31.2843 28.9223 27.6739C29.638 25.9951 29.9638 25.0878 29.8978 24.9496V24.9496Z" fill="#0B5256"/>
<path d="M23.0627 0.0170149C22.9926 -0.0637351 20.466 0.0488899 18.2674 2.50751C16.0688 4.96401 16.407 7.78176 16.4565 7.85401C16.506 7.92626 19.5915 8.03889 21.5612 5.18076C23.5309 2.32264 23.1328 0.0998899 23.0627 0.0170149V0.0170149ZM29.8978 24.9496C29.7988 24.7456 25.1025 22.3274 25.5398 17.6779C25.977 13.0263 28.9945 11.7513 29.0419 11.6131C29.0893 11.475 27.8106 9.93439 26.4555 9.15452C25.4606 8.60468 24.3595 8.28966 23.2318 8.23226C23.0091 8.22589 22.2357 8.03039 20.6455 8.47876C19.5977 8.77414 17.2362 9.73039 16.5865 9.76864C15.9347 9.80689 13.996 8.65939 11.9108 8.35551C10.5763 8.08989 9.16147 8.63389 8.14878 9.05252C7.13816 9.46902 5.21591 10.6548 3.87116 13.8061C2.52641 16.9554 3.22972 21.9449 3.73297 23.4961C4.23622 25.0453 5.02203 27.5846 6.35853 29.4376C7.54653 31.5286 9.12228 32.98 9.78022 33.473C10.4382 33.966 12.2944 34.2933 13.5814 33.6154C14.6168 32.9609 16.4854 32.5848 17.2238 32.6124C17.9601 32.64 19.4121 32.9396 20.8992 33.7578C22.0768 34.1764 23.1906 34.0021 24.3064 33.5346C25.4222 33.065 27.0372 31.2843 28.9223 27.6739C29.638 25.9951 29.9638 25.0878 29.8978 24.9496V24.9496Z" fill="#0B5256"/>
</g>
<defs>
<clipPath id="clip0_483_5174">
<rect width="33" height="34" fill="white"/>
</clipPath>
</defs>
</svg>
